/* XPM */
static char *result[] = {
/* columns rows colors chars-per-pixel */
"32 32 131 2 ",
"   c #272F22",
".  c #2C2A2C",
"X  c #312C2B",
"o  c #273023",
"O  c #283124",
"+  c #2E3629",
"@  c #263A2E",
"#  c #2D3A2D",
"$  c #31342A",
"%  c #30392B",
"&  c #252D30",
"*  c #293B33",
"=  c #2A3F38",
"-  c #343E3C",
";  c #155533",
":  c #165C32",
">  c #195B31",
",  c #24442D",
"<  c #23542D",
"1  c #2E4339",
"2  c #274A3B",
"3  c #2C4A39",
"4  c #374637",
"5  c #324539",
"6  c #394738",
"7  c #354B3D",
"8  c #3A4A39",
"9  c #205136",
"0  c #2C5537",
"q  c #36513D",
"w  c #146432",
"e  c #1D6331",
"r  c #1D6D30",
"t  c #0E7733",
"y  c #127D37",
"u  c #2F7525",
"i  c #357E22",
"p  c #2D6234",
"a  c #256C3B",
"s  c #356E3E",
"d  c #2F7137",
"f  c #414E37",
"g  c #424F3A",
"h  c #45533C",
"j  c #48553E",
"k  c #46593D",
"l  c #495D3C",
"z  c #3A4D40",
"x  c #3D5244",
"c  c #3C5C43",
"v  c #495641",
"b  c #425E43",
"n  c #4D5D46",
"m  c #425349",
"M  c #4F554A",
"N  c #4F5E48",
"B  c #50564B",
"V  c #535B48",
"C  c #446443",
"Z  c #4E6346",
"A  c #4F6B46",
"S  c #4F6048",
"D  c #506647",
"F  c #526C45",
"G  c #516148",
"H  c #536948",
"J  c #4F7247",
"K  c #527547",
"L  c #567D46",
"P  c #527448",
"I  c #557B48",
"U  c #2F9D18",
"Y  c #369F16",
"T  c #3EB212",
"R  c #0B862E",
"E  c #13842D",
"W  c #1C9829",
"Q  c #058E32",
"!  c #0C8B35",
"~  c #0E823F",
"^  c #148832",
"/  c #069D32",
"(  c #0C9937",
")  c #0E953C",
"_  c #0C9A3C",
"`  c #1F9133",
"'  c #2D8C24",
"]  c #378723",
"[  c #0CA12D",
"{  c #01AE2D",
"}  c #04B62D",
"|  c #00BB2B",
" . c #00A534",
".. c #0AA433",
"X. c #09A834",
"o. c #0AA338",
"O. c #08A939",
"+. c #17A832",
"@. c #02BC32",
"#. c #27A229",
"$. c #549B12",
"%. c #55A90F",
"&. c #4BA216",
"*. c #46AD13",
"=. c #45BC15",
"-. c #4BBD10",
";. c #50B315",
":. c #1CDB1E",
">. c #35D315",
",. c #37DB14",
"<. c #01C02F",
"1. c #00CF2D",
"2. c #1DC122",
"3. c #08D426",
"4. c #0ED824",
"5. c #11D024",
"6. c #00C333",
"7. c #00CE35",
"8. c #51CD0B",
"9. c #43D711",
"0. c #6ACA04",
"q. c #4EE10B",
"w. c #59EE05",
"e. c #52E208",
"r. c #50E809",
"t. c #6CEF00",
"y. c #75F200",
"u. c #7FF100",
"i. c #598548",
"p. c #5F9143",
"a. c #699F43",
/* pixels */
"k P J P P P J J L k = Z P P P P J p.K = k P Z 1 k I P P J K Z 5 ",
"h Z Z Z Z Z Z Z F h 5 g n Z Z Z Z F j 5 h N g 5 h F N Z Z Z n 5 ",
"h N n n n n n n N h 5 v n n n n n n v 5 h n n 4 j n n n n n j 1 ",
"g N n n n n n n n h 4 k n n n n n n j 1 k n v 4 h n n n n n n 8 ",
"h n N n n n n N n j 1 v n n N n n n n 5 h n j 1 h n n n n n k 5 ",
"h N n n n n n n v g 5 j n n n n n n n 4 h n n 1 g n n n n n h 5 ",
"h n n n n n n n n k 1 j N N n n n G g 1 j n n 1 h n n n n n n 4 ",
"8 v S S n N N N n h 5 h j k j k j j h 5 h G l 5 k N n n n n n f ",
"5 4 4 4 5 4 4 4 8 8 1 * @ * * * @ * @ = h v n 1 h N n n n n n 1 ",
"k C C C C C C 7 * @ O     o o o o     = 7 5 1 1 g n S Z N S h 5 ",
"l a.J P J K K z + O o O o O o O o O O o   O # 8 7 4 8 4 4 4 4 3 ",
"h D Z Z Z Z A z + O o O O O O O o O O O o O # 6 i.k = k C C C 7 ",
"h n n n n n N z + O o O O O o O O o O O o + # 6 V j 5 n n n n 4 ",
"8 v n n n n N 3 + + O O O O O O O O o O   + * 6 n f = k n G h 6 ",
"v N n n n n S z + O O O O O O O O O O O o + + 8 n j 1 n n n n 1 ",
"h N n n n n N z + O O O o O o O o O o O o + # 8 G j 5 n n n k 1 ",
"m N n n n n b z + O o O O O O O O O o O O + # 8 Z k 4 n n n v 5 ",
"h N n n n n N z + O o O O o O O O O O o O + * 8 V h 4 n n k h 5 ",
"h n n N n n n z + O o O O O O O O O O o O # # 8 S h 5 g 8 6 8 1 ",
"k n n n n n n 7 % O o O o O o O o O o o O + # 8 k g = 8 8 4 b 1 ",
"8 n n n n n S z + + O O o O O O O O O o O % 1 7 q 7 q 8 1 8 n 5 ",
"h N n n n n S z + O o O O O O O . O O o O + 4 F I P I L 4 6 n 5 ",
"h N n n n n S z + O o O O O O O O O O o O % 5 k J A K F 4 8 n 5 ",
"h N n n n n n q + + o O O O o O O O O o O % 5 n n n n n 4 8 n 8 ",
"h n N N n N N 7 + %   O O o O O O O O o O + 5 n n n n N 4 6 n 8 ",
"5 h h k h h v 5 $ $     o o o o o o o o O + 5 v n n n N 4 7 n 5 ",
"1 x q q z z z 2 2 + % + % $ $ + + # # % % + 5 n n n n v f 8 n 5 ",
"8 H D s a a a ;.8.' X + @ > : # % % % + $ + 5 n B M n V 8 8 n 8 ",
"f v c *.y.e.8.w q.w.; & =.r.u.' + % $ @ , , 5 m Y U m b 3 4 n 5 ",
"j V M m T 5.1.-.W 4.$.$.4.,.u . X $ @ *.0.2.9 %.:.t.&.&.*.q h - ",
"p R d d c } _ 1.E O.{ / o.6.< r [ < i 0.} 3.} ~ 6.t ! 7.$.0 q ] ",
"..o.( ( | 1.) ^ X._ X.} o.<.} _ @.X.e  .` +.O.| _ } / 9.Q y #.>."
};
