/* XPM */
static char *c23fa9bf41de459996bc6f8faafd43a9SNkl3SiqbgCFyoHj[] = {
/* columns rows colors chars-per-pixel */
"32 32 212 2 ",
"   c #161616",
".  c #3C1713",
"X  c #30080C",
"o  c #192518",
"O  c #183518",
"+  c #21321B",
"@  c #2E2213",
"#  c #143B21",
"$  c #1B2F30",
"%  c #252525",
"&  c #2A2B2B",
"*  c #252A2B",
"=  c #342926",
"-  c #313131",
";  c #363C3F",
":  c #303729",
">  c #43080F",
",  c #4B0B12",
"<  c #590D15",
"1  c #481415",
"2  c #59161A",
"3  c #46140F",
"4  c #610F18",
"5  c #6B121A",
"6  c #621117",
"7  c #7A1A1E",
"8  c #73161C",
"9  c #58211F",
"0  c #481F20",
"q  c #5A282C",
"w  c #63272A",
"e  c #713637",
"r  c #174F1E",
"t  c #234918",
"y  c #295314",
"u  c #126D19",
"i  c #0D6E1F",
"p  c #336D1B",
"a  c #0E5A28",
"s  c #154D2D",
"d  c #344839",
"f  c #275334",
"g  c #2F4F2F",
"h  c #18662B",
"j  c #0E7B2E",
"k  c #196833",
"l  c #177A31",
"z  c #106D2A",
"x  c #346034",
"c  c #4A4736",
"v  c #514E2E",
"b  c #436330",
"n  c #3B3948",
"m  c #573F47",
"M  c #673A41",
"N  c #184B5E",
"B  c #13434D",
"V  c #354A44",
"C  c #3A5A52",
"Z  c #146174",
"A  c #0E677E",
"S  c #2A6270",
"D  c #0F5166",
"F  c #4D594B",
"G  c #4E5546",
"H  c #585941",
"J  c #544D50",
"K  c #7C5445",
"L  c #725554",
"P  c #40645F",
"I  c #6B6242",
"U  c #486C69",
"Y  c #5A646B",
"T  c #4E7475",
"R  c #497077",
"E  c #71756F",
"W  c #811A1F",
"Q  c #841B20",
"!  c #8B1E22",
"~  c #8B2528",
"^  c #952225",
"/  c #9A2526",
"(  c #953D3D",
")  c #A22929",
"_  c #A8292A",
"`  c #B92F2F",
"'  c #A0322F",
"]  c #864A3F",
"[  c #895548",
"{  c #9A5042",
"}  c #AB5647",
"|  c #8D6256",
" . c #B46752",
".. c #967367",
"X. c #A67A68",
"o. c #C77559",
"O. c #C97C65",
"+. c #38BB1F",
"@. c #08842B",
"#. c #0C8C3B",
"$. c #088639",
"%. c #108E3E",
"&. c #0C9535",
"*. c #0E943D",
"=. c #049B3D",
"-. c #0C9B3B",
";. c #06953F",
":. c #1A9C37",
">. c #10913E",
",. c #159939",
"<. c #089728",
"1. c #248124",
"2. c #239E33",
"3. c #249E21",
"4. c #08A627",
"5. c #02BE2F",
"6. c #1CB82A",
"7. c #09A637",
"8. c #05AD35",
"9. c #08AA36",
"0. c #04A33A",
"q. c #0AA239",
"w. c #02AA39",
"e. c #1AA532",
"r. c #04B333",
"t. c #01BB31",
"y. c #25A52E",
"u. c #2AAC2A",
"i. c #2AA52E",
"p. c #33AD27",
"a. c #31AB28",
"s. c #34B225",
"d. c #25A130",
"f. c #27B925",
"g. c #2E930E",
"h. c #45BB1B",
"j. c #4BBD18",
"k. c #45B51D",
"l. c #5FB506",
"z. c #1AD41E",
"x. c #3DDC0F",
"c. c #27D719",
"v. c #3CD414",
"b. c #01C32E",
"n. c #00CC2B",
"m. c #0BC32A",
"M. c #19C823",
"N. c #00D228",
"B. c #06D225",
"V. c #11D221",
"C. c #00C231",
"Z. c #21C622",
"A. c #44DB0E",
"S. c #5AD509",
"D. c #4DC016",
"F. c #45CA14",
"G. c #52CD0F",
"H. c #6ACE06",
"J. c #65CD09",
"K. c #67D006",
"L. c #73D303",
"P. c #5DE202",
"I. c #7EEA00",
"U. c #7FE300",
"Y. c #6FE600",
"T. c #048D44",
"R. c #0A8E41",
"E. c #088541",
"W. c #059241",
"Q. c #089141",
"!. c #83E900",
"~. c #93EE00",
"^. c #92857E",
"/. c #AD8671",
"(. c #D38869",
"). c #D7987B",
"_. c #CF927C",
"`. c #E39A70",
"'. c #E6A27B",
"]. c #106F80",
"[. c #127689",
"{. c #547D83",
"}. c #188B9C",
"|. c #18879B",
" X c #1E9BAD",
".X c #1C94A7",
"XX c #209EB1",
"oX c #24A8BB",
"OX c #31A6B7",
"+X c #318595",
"@X c #65868C",
"#X c #698B95",
"$X c #788D90",
"%X c #27ADC1",
"&X c #2DB7C9",
"*X c #38C8D9",
"=X c #40D4E4",
"-X c #B88F82",
";X c #A1A8AC",
":X c #DC9D82",
">X c #D8B099",
",X c #EBB291",
"<X c #DEBDA8",
"1X c #E4BDA6",
"2X c #F4C19F",
"3X c #F6C6A6",
"4X c #FDD4B5",
"5X c #FAD5BC",
"6X c #E9C5A8",
"7X c #BECDC2",
"8X c #F5D6C5",
"9X c #F8E4D4",
/* pixels */
"*.*.n.9.*.7.q.*.>.>.N.r.-.b.>.*.9.-.r.R.q.N.>.r.q.q.7.W.F.s.W.d.",
"q.q.>.-.b.N.-.r.t.*.r.N.-.t.b.j @.<.>.r.>.=.T.Q.>.-.Q.k.A.a.d.v.",
"q.n.b.*.5.-.>.r.Q.Q.-.q.&.i + , , @ + 4.#.+.I.P.0.*.*.F.V.i.n.C.",
">.-.N.7.r.t.w.k.J.y.9.<.3 5 Q ! ^ ^ 5 , t w.+.V.0.*.8.r.n.0.=.t.",
"7.*.:.,.t.=.j.V.h.Q.9.X 5 / ) ^ / ) W W 5 + ;.W.W.Q.9.q.w.d.a.a.",
"C.Q.s.L.k.T.Z.t.R.>.i X ! ` ) ) W ) / ^ W > p S.J.J.T.*.d.v.A.D.",
"q.*.i.M.M.u.=.-.9.n.t 6 ! ` ^ W 6 ^ _ ^ ^ 4 o j.B.C.S.*.A.C.F.W.",
"b.r.w.t.7.7.q.b.>.;.y 6 W W 8 w 0 6 ^ W W < O 0.f.8.B.e.W.t.=.Q.",
"*.>.r.*.*.>.q.q.r.9.y , ! e w | | q w 5 7 > O -.=.q.q.q.:.p.a.s.",
">.9.r.>.>.r.t.-.n.&.q X 2 /.X.1X<X/./., < 0 : 9.t.q.,.9.m.M.~.D.",
"n.-.9.r.b.%.b.t.*.4.^.[ 0 O.).4X4X,X(.1 X K b z.C.7.Q.q.r.F.T.W.",
"-.>.5.q.0.W.Q.-.w.B.f X.e Y #X3X4X7Xn @X2 | L.S.t.7.q.9.w.W.W.0.",
"9.-.8.*.y.!.F.,.-.7.a q ( ^.;X8X4X9XY -X8 = $.R.R.q.7.q.d.U.I.6.",
"9.-.5.-.T.J.c.a.w.t.d.3 ' (.,X4X4X4X,X .! r r.r.9.q.5.9.w.d.6.r.",
">.>.r.9.5.E.C.A.R.;.x.3 ~ J [ O.(.o.J e 7 4.t.,.r.Q.R.r.Q.N.Q.Q.",
"7.b.>.T.=.*.t.t.-.n.z [ q [.Z N N N ].S w K *.Q.i.L.w.r.9.q.Q.Q.",
"q.q.d.!.F.,.*.>.b.&.I >XL oXoX}.|. X%X+X..).x &.u.z.8.9.0.x.K.Q.",
"q.n.R.e.x.m.b.9.*.k  .X.S *X=X&XoX&X=XOXY `.v &.*.w.>.r.*.b.M.*.",
"*.-.7.T.t.q.-.q.t.x '.| |.&X&X%X X&X*X%XZ (.X.j b.>.w.*.*.%.*.q.",
">.t.W.j.t.q.-.q.3.] 1X( D }. XXX X X.X[.B } 1Xx -.;.x.5.-.5.%.t.",
"9.*.s.c.t.-.9.-.x >X8X] B [..XOX%XXX|.].B { 8X/.l w.H.Z.-.n.5.-.",
"b.E.!.v.0.-.t.q.v 5X,X] * $ E {.$XE F $ = :X5X6Xa C.E.*.-.-.-.b.",
"R.C.w.T.b.9.-.9.g :X).[ V T c G G G F U = } 6X| k Q.n.b.%.b.r.%.",
"r.-.2.J.h.=.*.b.#.b H = V {.C U R C U @X; q H l R.C.b.-.>.7.>.9.",
">.Q.s.c.w.Q.s.p.*.*.b.n.f T #Xd y d @X@Xd I.d.t.m.-.q.,.8.q.q.N.",
"9.-.:.e.t.W.c.Y.Q.-.-.q.h V $XV p d $XU h 6.u.-.-.C.n.*.t.N.9.q.",
"r.r.t.R.w.-.0.F.;.*.*.*.z   & O &.r * % a -.R.r.C.>.*.9.>.9.9.t.",
"q.,.0.j.j.Q.*.Q.*.t.w.#.# % &   a   % & o $.t.q.q.R.Q.n.,.r.w.-.",
"b.q.>.R.r.-.b.>.-.R.A.g.% - - % a   : - & u K.Q.:.G.K.w.>.R.A.b.",
">.*.9.b.9.t.r.8.-.>.r.8.r % %   l O & % O y.e.T.e.n.Z.R.b.q.-.q.",
"-.*.>.9.N.q.9.b.*.9.*.*.*.j @.$.d.l.@.z #.e.I.+.d.8.8.>.r.>.9.-.",
"r.*.-.>.7.>.N.7.9.t.*.*.-.n.b.-.*.T.C.q.-.y.s.c.M.=.5.7.*.*.r.9."
};
