/* XPM */
static char *f0eb03f316764b94ee75d1345bffac93bxhV5xLuJVhKxwZ9[] = {
/* columns rows colors chars-per-pixel */
"32 32 207 2 ",
"   c #1F0106",
".  c #121312",
"X  c #161819",
"o  c gray10",
"O  c #1E1711",
"+  c #2B040A",
"@  c #36050B",
"#  c #2B1313",
"$  c #1E310F",
"%  c #18271C",
"&  c #1A3D1A",
"*  c #183519",
"=  c #0D3319",
"-  c #232D18",
";  c #262A16",
":  c #27341A",
">  c #2D250E",
",  c #1A2120",
"<  c #16362F",
"1  c #222222",
"2  c #2D2D2D",
"3  c #2C3729",
"4  c #323A20",
"5  c #42070E",
"6  c #44080F",
"7  c #4A0A11",
"8  c #550C14",
"9  c #5D0D16",
"0  c #4E1519",
"q  c #581319",
"w  c #600F16",
"e  c #6E131A",
"r  c #65151C",
"t  c #7C181E",
"y  c #73141C",
"u  c #6A1F23",
"i  c #472428",
"p  c #5A2527",
"a  c #593D37",
"s  c #6F3331",
"d  c #743E39",
"f  c #62302B",
"g  c #1A5014",
"h  c #294811",
"j  c #0D711D",
"k  c #0D4421",
"l  c #174A29",
"z  c #135524",
"x  c #174F32",
"c  c #2E5526",
"v  c #2F433A",
"b  c #0C6A26",
"n  c #10732B",
"m  c #0E7A31",
"M  c #0F7426",
"N  c #426203",
"B  c #514E3E",
"V  c #65423B",
"C  c #79453A",
"Z  c #133344",
"A  c #413F4C",
"S  c #104950",
"D  c #335748",
"F  c #3A4B51",
"G  c #007E45",
"H  c #056F4A",
"J  c #07556E",
"K  c #255A67",
"L  c #1F6578",
"P  c #356C77",
"I  c #58494C",
"U  c #7D5448",
"Y  c #7B4541",
"T  c #5C6251",
"R  c #4B5866",
"E  c #557372",
"W  c #446D72",
"Q  c #881C21",
"!  c #8F2023",
"~  c #932125",
"^  c #9B2527",
"/  c #9F2728",
"(  c #A52829",
")  c #B42D2D",
"_  c #845248",
"`  c #A0594F",
"'  c #9B6251",
"]  c #9B715F",
"[  c #8E6A56",
"{  c #A66550",
"}  c #9E7A6B",
"|  c #B17A69",
" . c #38BB1F",
".. c #09882C",
"X. c #089828",
"o. c #0A873A",
"O. c #118E3F",
"+. c #0E943D",
"@. c #049C3D",
"#. c #0C9B3B",
"$. c #06953F",
"%. c #1A9C37",
"&. c #10913E",
"*. c #159939",
"=. c #1C8229",
"-. c #25972A",
";. c #02BE2F",
":. c #0AB82F",
">. c #1CB82A",
",. c #09A637",
"<. c #05AD35",
"1. c #08AA36",
"2. c #04A33A",
"3. c #0AA239",
"4. c #02AA39",
"5. c #01A130",
"6. c #19A632",
"7. c #05B233",
"8. c #02BB31",
"9. c #03A32D",
"0. c #25A62F",
"q. c #29AC2A",
"w. c #2AA52E",
"e. c #33AD27",
"r. c #31AB28",
"t. c #34B225",
"y. c #25A130",
"u. c #27B925",
"i. c #498D07",
"p. c #618B05",
"a. c #44BB1B",
"s. c #4BBD18",
"d. c #45B51D",
"f. c #40A71B",
"g. c #60B707",
"h. c #18D41E",
"j. c #3EDB0F",
"k. c #27D719",
"l. c #3CD414",
"z. c #02CF27",
"x. c #01C32E",
"c. c #00CB2B",
"v. c #0BC32A",
"b. c #19C823",
"n. c #02D326",
"m. c #00D229",
"M. c #0FD322",
"N. c #11D221",
"B. c #00C231",
"V. c #00CA32",
"C. c #23C522",
"Z. c #44DA0E",
"A. c #5AD509",
"S. c #4DC016",
"D. c #45CA14",
"F. c #52CD0F",
"G. c #67CE08",
"H. c #6BD005",
"J. c #62D108",
"K. c #74D900",
"L. c #5DE203",
"P. c #6FE600",
"I. c #7EEA00",
"U. c #7FE300",
"Y. c #048D43",
"T. c #0A8E41",
"R. c #049241",
"E. c #099240",
"W. c #82E600",
"Q. c #84EC00",
"!. c #93EE00",
"~. c #B98A7A",
"^. c #AC856F",
"/. c #C9967B",
"(. c #C38F74",
"). c #137B90",
"_. c #2C7989",
"`. c #1B8799",
"'. c #2D8E9D",
"]. c #1D99AB",
"[. c #1F9DB0",
"{. c #1A8CA1",
"}. c #2291A5",
"|. c #26AABD",
" X c #21A2B5",
".X c #61868B",
"XX c #2EBACC",
"oX c #3ACCDC",
"OX c #BE9783",
"+X c #DD9D80",
"@X c #C09B86",
"#X c #DEA68D",
"$X c #CFAB95",
"%X c #D6B098",
"&X c #E7A886",
"*X c #EFB088",
"=X c #EAB599",
"-X c #C6B3A5",
";X c #E1BAA1",
":X c #F6CDB2",
">X c #FDD4B6",
",X c #FAD3B6",
"<X c #F4C7A8",
"1X c #84BDC5",
"2X c #F9DAC7",
"3X c #FCE3D3",
"4X c #F5EDE4",
/* pixels */
"+.+.z.1.+.,.3.+.#.&.m.<.#.;.+.&.1.#.7.&.3.z.T.7.3.3.3.@.S.t.R.0.",
"3.3.+.+.x.m.#.7.7.+.7.m.#.;.x.3.8.,.O.7.O.@.Y.E.+.+.R.d.Z.q.y.l.",
"3.z.x.+.8.#.&.7.R.+.#.3.#.X.: 4 & & ..z.E.D.I.L.2.+.@.D.N.w.c.B.",
"&.#.m.3.8.8.4.d.J.0.1.8.- 6 w e y e 7 : ;.2. .h.3.+.1.7.c.4.E.8.",
"3.+.*.*.8.@.s.N.d.E.,.: q t Q Q ~ Q Q e g O.R.Y.R.R.3.3.4.y.e.e.",
"x.E.t.K.d.Y.C.8.T.T.X.7 y ~ / ^ ) ( ~ ^ 8 X.w.A.J.G.R.$.y.l.Z.S.",
"3.+.w.b.b.q.R.#.1.c.- 9 y Q ^ ^ ( ( Q ( t - $.d.M.B.A.*.Z.B.D.Y.",
"x.7.<.8.2.1.3.V.E.o.> w y ~ ) Q t y p y e - x.@.u.4.n.6.R.B.R.R.",
"+.&.7.&.&.&.3.#.8.M @ 8 r e ~ r 0 d =XC 0 - 3.3.@.3.3.3.%.e.r.e.",
"&.1.7.+.&.7.;.#.z.n @ 9 5 @ 9 | $X<X>X@X] j T.2.8.3.T.7.v.h.!.s.",
"z.+.1.7.x.T.x.x.&.X.# 8 i ' u %X#X/.<X>X} o.D.N.8.,.&.3.7.D.Y.R.",
"3.&.x.#.3.R.R.+.1.n.* 5 U OX9 { 1XI $X>Xd e.I.A.B.,.3.1.4.R.R.2.",
",.#.1.+.0.W.D.*.+.1.o.+ p ` 8 } 4XR -X>Xl E.T.E.T.3.,.*.y.U.I.>.",
"1.+.8.3.Y.J.k.e.4.9.>   % p 0 %X>X:X,X(.l <.1.7.:.3.8.7.4.y.>.7.",
"+.&.7.,.B.Y.B.Z.E.- + h S Z 6 U &X=X^.# N n.B.T.7.T.T.7.#.m.E.E.",
"3.x.+.R.@.+.8.7.n @ + # E `.i F A I L Z h 6.3.E.y.H.4.7.1.E.E.E.",
"#.2.0.Q.D.*.+.*.j @ + d 3X_.K P ].{.XX_.g 2.#.@.q.h.1.<.2.j.H.R.",
"3.z.T.%.j.v.x.,.z @ O ' *XW }.'.oXXXXXoXl O.c.,.+.4.&.7.+.B.b.+.",
"*.#.3.Y.8.#.#.3.j + p.C *X| }.oXoX XXXXXG 1.7.3.x.&.4.#.+.+.O.3.",
"+.8.@.s.8.2.#.2.C.$ -.c #X=Xa }.[.{.).J $.m.#.c.#.$.j.8.#.;.O.;.",
"1.+. .k.;.#.1.+.2.z 4.o._ <X(.I P XX`.H 3.&.3.B.+.4.G.u.#.z.8.#.",
"8.Y.Q. .2.+.8.,.;.+.;.<.c | ,X2X~.P {.Y.3.&.+.+.#.x.Y.+.+.#.#.x.",
"E.x.4.Y.c.,.#.,.#.x.O.O.X.V /.>X<XI S l 3.z.+.*.+.#.c.x.O.x.7.O.",
"7.@.y.G.a.@.+.c.*.<.;.#.j I _ ~.{ [ v 4 R.R.@.7.O.x.x.#.&.3.&.7.",
"&.+.t.k.4.E.t.e.E.E.c.x.2 D T s i F D 3 A.I.0.;.;.#.3.#.1.,.,.z.",
"1.+.*.6.8.@.k.P.R.#.*.z v .XE 3 c v W % c.>.w.#.#.;.c.+.7.n.1.#.",
"8.7.x.T.7.+.@.D.E.&.b X o % 3 =.X.% X . % & o.7.x.O.#.,.&.1.1.;.",
"#.&.2.s.s.+.&.E.E.8.= o 1 . i.:.+.& . . 2 X ..#.3.E.R.c.&.7.4.#.",
"x.1.&.E.4.#.x.+.*.E.g o 2 % k $.@.m . . o = g.Y.*.F.G.<.&.E.Z.c.",
"&.&.3.x.1.8.7.1.+.&.X.= 1 1 % +.q.h.b k k -.6.$.6.z.b.T.x.3.@.*.",
"+.#.&.7.m.#.1.x.#.1.&.o.m m ..#.0.H.4.+.+.6.Q. .y.<.<.&.7.&.1.#.",
"7.&.+.&.1.#.m.3.1.;.&.&.#.c.x.+.+.$.;.,.+.w.u.k.b.$.;.,.&.+.8.1."
};
