/* XPM */
static char *result[] = {
/* columns rows colors chars-per-pixel */
"32 32 202 2 ",
"   c #131312",
".  c #1A1A19",
"X  c #2E030A",
"o  c #3C090F",
"O  c #3B1617",
"+  c #0D3B19",
"@  c #1A3518",
"#  c #192D16",
"$  c #253819",
"%  c #1A2C2F",
"&  c #232323",
"*  c #2C2C2C",
"=  c #242A25",
"-  c #2D3728",
";  c #4B0A11",
":  c #460810",
">  c #530C13",
",  c #5B0D16",
"<  c #59171A",
"1  c #410E11",
"2  c #610F17",
"3  c #651018",
"4  c #6C121A",
"5  c #71141B",
"6  c #7E191E",
"7  c #401E24",
"8  c #582828",
"9  c #623736",
"0  c #70272A",
"q  c #19441B",
"w  c #16471C",
"e  c #14581D",
"r  c #0C4D1D",
"t  c #315119",
"y  c #106E18",
"u  c #0F4223",
"i  c #18562A",
"p  c #164F25",
"a  c #2C4639",
"s  c #31453B",
"d  c #17682B",
"f  c #137924",
"g  c #127C33",
"h  c #116C34",
"j  c #237A25",
"k  c #554635",
"l  c #47422C",
"z  c #1E3943",
"x  c #06555A",
"c  c #374E52",
"v  c #077348",
"b  c #17576A",
"n  c #1D5D71",
"m  c #275C69",
"M  c #1E6272",
"N  c #30606A",
"B  c #494F54",
"V  c #6F4C44",
"C  c #7A6057",
"Z  c #405A64",
"A  c #496867",
"S  c #4A706F",
"D  c #4D7477",
"F  c #5C7270",
"G  c #71757A",
"H  c #8D1E23",
"J  c #851B20",
"K  c #932224",
"L  c #9B2527",
"P  c #9F2828",
"I  c #A22728",
"U  c #A02828",
"Y  c #B42D2D",
"T  c #834F42",
"R  c #87534A",
"E  c #965347",
"W  c #896859",
"Q  c #956755",
"!  c #A27A6B",
"~  c #B47863",
"^  c #C67E67",
"/  c #39BB1F",
"(  c #38A916",
")  c #08822C",
"_  c #0E863B",
"`  c #118E3F",
"'  c #108434",
"]  c #0D943D",
"[  c #039B3E",
"{  c #0C9C3B",
"}  c #07973A",
"|  c #10913E",
" . c #149939",
".. c #199936",
"X. c #1B9C21",
"o. c #239E33",
"O. c #02BE2F",
"+. c #1CB62A",
"@. c #09A637",
"#. c #06AD35",
"$. c #08A936",
"%. c #03A33A",
"&. c #0AA239",
"*. c #03A939",
"=. c #05A237",
"-. c #1AA532",
";. c #05B233",
":. c #01BB31",
">. c #06A227",
",. c #25A62E",
"<. c #2AA42E",
"1. c #2BAC2A",
"2. c #22AB2D",
"3. c #34AE26",
"4. c #31AB28",
"5. c #39AE25",
"6. c #26BC25",
"7. c #31B325",
"8. c #26A130",
"9. c #60970D",
"0. c #43BB1C",
"q. c #4BBD18",
"w. c #45B51D",
"e. c #1ED31D",
"r. c #14D71E",
"t. c #3DDC0F",
"y. c #27D718",
"u. c #3AD513",
"i. c #01C32D",
"p. c #0AC22B",
"a. c #00CC2B",
"s. c #03CF27",
"d. c #1CC424",
"f. c #15CC23",
"g. c #03D226",
"h. c #00D228",
"j. c #0FD322",
"k. c #11D221",
"l. c #00C331",
"z. c #23C522",
"x. c #44DB0D",
"c. c #5DD507",
"v. c #45CE13",
"b. c #49C515",
"n. c #48D111",
"m. c #57C611",
"M. c #69CE07",
"N. c #61CD0B",
"B. c #67D106",
"V. c #75DB00",
"C. c #5DE202",
"Z. c #64E600",
"A. c #6FE700",
"S. c #7DE900",
"D. c #78E500",
"F. c #048D43",
"G. c #0A8E42",
"H. c #059241",
"J. c #099340",
"K. c #788177",
"L. c #82E600",
"P. c #87EA00",
"I. c #92ED00",
"U. c #B98369",
"Y. c #B48C76",
"T. c #B6907D",
"R. c #CB896E",
"E. c #CB9279",
"W. c #D59378",
"Q. c #D3906C",
"!. c #167388",
"~. c #167C93",
"^. c #0F6A81",
"/. c #537981",
"(. c #19859A",
"). c #268494",
"_. c #1F9CAF",
"`. c #1F9FB1",
"'. c #1B8FA4",
"]. c #209FB1",
"[. c #2E95A4",
"{. c #26ABBD",
"}. c #22A3B6",
"|. c #38A3B0",
" X c #78969C",
".X c #33BDCF",
"XX c #31BED0",
"oX c #28B2C6",
"OX c #40D5E4",
"+X c #B8B5B1",
"@X c #CD9E8A",
"#X c #D7AC93",
"$X c #D0AF9A",
"%X c #D1B8A5",
"&X c #E2BAA0",
"*X c #EAB090",
"=X c #EEC5A9",
"-X c #F4C6A7",
";X c #FDD4B6",
":X c #FAD4B9",
">X c #97D9E2",
",X c #F8E4D3",
/* pixels */
"] ] a.@.] @.@.] ] ] h.#.{ O.] ] @.{ ;.] &.a.] ;.&.@.&.H.b.7.J.8.",
"@.&.] ] i.h.{ ;.;.] ;.h.{ :.i.{ ;.@.| ;.] [ F.G.] ] G.w.x.4.8.u.",
"{ a.i.] :.] | ;.H.] ] &.&.i.`  .@.@.@.g.J.b.S.C.%.] ] u.k.<.a.l.",
" .{ h.@.:.:.*.w.B.,.*.:.| ` i.{ ;.h.@.{ :.%.0.k.%.] #.;.a.*.J.:.",
"@.] .. .:.[ b.k.q.G.$. .a.;.H.%. .#.#.O.:.` H.F.H.H.@.@.*.8.4.4.",
":.J.4.V.w.F.z.:.J.J.:.%.J.H.B.N.H.] ] &.@.O.,.c.N.M.F.J.8.u.x.b.",
"@.] <.f.d.1.J.] $.a...5.1.J.l.C.F.8.3.-.{ &.G.w.j.l.c.] x.l.b.H.",
"i.;.#.:.*.*.@.i.{ J.5.x.d.G.] 2.-.P.e.s.#.] i.[ 6.*.g.-.H.l.H.J.",
" . .#.G. .] { { ;.$.<.d.F.:.&.&.&.G.o.z.#.| &.&.[ &.{ &...5.4.7.",
"G.$.;. .| ;.:.{ h.&.#.F.b.%.&.{ i.` :.:.{ i.G.*.:.&.J.;.p.f.I.b.",
"a.{ $.$.i.G.i.O.| :.;.F.A.y.] $.G.O.a.{ @.H.b.j.:.$. .{ ;.n.F.H.",
"&.| l.&.&.F.[ ] $.h.] ] 4.5.*.g.$.{ { J.} 0.S.c.l.@.{ $.*.F.H.%.",
"@.] $.] ,.L.v. .] @.J.H.a.%.| $.$.O.a.O. .H.F.G.G.&.$.{ 8.S.S.+.",
"$.{ :.&.F.N.y.4.*.:.o.B.J.] | ;.#.&.&.G.F.;.#.;.;.&.:.;.*.o.+.;.",
"]  .#.@.i.G.l.x.G.} t.n.H.i.;.G.;.]  .v.D.a.:. .;.G.G.#.{ h.G.J.",
"@.i.G.H.[ ] :.;.{ a.p. .] { &.i.{ [ V.Z.<.-.&.J.<.M.;.#.$.J.J.J.",
"&.%.8.L.n. .] ] i.&.:.] &.a.{ &.@.$.H.G.h.&.] [ 1.k.$.$.%.x.B.H.",
"&.a.J.8.t.p.i.@.] H.[ H.] &.] ] { { ] ]  .G.a.@.] #.G.;.] l.d.J.",
" .{ %.H.:.{ ] @.:.u.I.m.[ a.] i.a.&.&.$.h.$.;.@.i.J.$. .] ` ] &.",
"] :.H.q.:.&.{ &.z.+.1.3.:.&.@.g.{ ] g.{ ;.h. .a.&.G.t.l.{ O.` l.",
"@.] / y.:.' q q w g %.] i.g.] &.@.&.] { &.] @.:.] *.B.d.{ a.:.{ ",
":.F.P./ q > J 3 < W W l a i e y p h v ;.{ ]  .f d f g _ e } { l.",
"G.l.%.@ 5 L I 3 V $X;X=X&X! . z [..X(.x v % % a S S w u   r ;.` ",
";.&.j ; J K K 9 -X;X-X$X%X&XW ~.XXXX{.!.'.M a N D D &     q | #.",
" .G.$ 5 H I I 3 R -XR.B G ;XW.b `.{.`._.{.(.s c - - .     +  .g.",
"$.] $ 5 L Y I 5 8 &XW.>X,X;X~ n {.OXXX_.{.).a S F c     . . ) &.",
":.;.t 5 K I I J 0 ! E.E ! @X8 c N |.XX(.(.M * B G  XA   & = ) O.",
" .J.$ 2 H K L Y H , < , > : o c (.}.`.(.M T.E.#XT A = & * & ) { ",
"i.@.g 1 6 H J H 2 o U.&XE O x ).K.N b m T -X;X@X- t . . &   ( i.",
"] ] { e ; 4 5 4 , : 7 8 7 u x +X:XR.U.E.=X*X~ k -.g.X.q + w } { ",
"] {  .#.y 1 ; , > , : O @ w @ V Y.Q.Q.R.W 9 9.( 8.#.#.| ;.] $.{ ",
";. .]  .$.' y # X X # g &.a.>.d p p f f _ ,.7.y.f.} O.@.] ] ;.$."
};
