/* XPM */
static char *_4636436919c4708f68ffbb0fde58673ev6HzUtd3aYMf9jX[] = {
/* columns rows colors chars-per-pixel */
"32 32 207 2 ",
"   c #161616",
".  c #220107",
"X  c #270309",
"o  c #33050B",
"O  c #3B060D",
"+  c #380A0E",
"@  c #360D14",
"#  c #371311",
"$  c #2B140E",
"%  c #132217",
"&  c #0F361C",
"*  c #1D3715",
"=  c #0E2D1C",
"-  c #2B3619",
";  c #242A10",
":  c #252525",
">  c #26262A",
",  c #372B25",
"<  c #2E332A",
"1  c #263234",
"2  c gray20",
"3  c #42080F",
"4  c #4C0A12",
"5  c #470B11",
"6  c #5A0D15",
"7  c #540C14",
"8  c #421312",
"9  c #551D1B",
"0  c #630F18",
"q  c #621017",
"w  c #6C1219",
"e  c #72141B",
"r  c #7A171E",
"t  c #7E181F",
"y  c #4F2222",
"u  c #5A2729",
"i  c #463237",
"p  c #6C3732",
"a  c #19511A",
"s  c #12681E",
"d  c #36731C",
"f  c #2A7314",
"g  c #19582A",
"h  c #0F5529",
"j  c #305223",
"k  c #3C5934",
"l  c #2C522F",
"z  c #18622A",
"x  c #097A2C",
"c  c #0D7B33",
"v  c #0D7732",
"b  c #117E37",
"n  c #146E27",
"m  c #276625",
"M  c #5C4B3D",
"N  c #644337",
"B  c #74503F",
"V  c #774A3F",
"C  c #466336",
"Z  c #1C3A4D",
"A  c #0E4350",
"S  c #3C564D",
"D  c #3C5B54",
"F  c #3D4F54",
"G  c #0E6E4E",
"H  c #0D596B",
"J  c #395A63",
"K  c #2A5F6D",
"L  c #1F6C7F",
"P  c #0C6E76",
"I  c #396A76",
"U  c #276B79",
"Y  c #434548",
"T  c #435D59",
"R  c #5C594B",
"E  c #7C5A50",
"W  c #456647",
"Q  c #726153",
"!  c #4E5C62",
"~  c #49706F",
"^  c #4E7273",
"/  c #851B21",
"(  c #8B1E22",
")  c #942225",
"_  c #9C2427",
"`  c #9E2728",
"'  c #A22929",
"]  c #A6282A",
"[  c #B32D2D",
"{  c #9A5746",
"}  c #A45F4F",
"|  c #97695B",
" . c #896859",
".. c #B3735A",
"X. c #B47B62",
"o. c #38BB1F",
"O. c #3DA01D",
"+. c #10892F",
"@. c #089D2C",
"#. c #0C8637",
"$. c #118738",
"%. c #118E3F",
"&. c #128236",
"*. c #0D943D",
"=. c #049B3D",
"-. c #0C9B3B",
";. c #0B9637",
":. c #1A9C37",
">. c #10913E",
",. c #159939",
"<. c #109031",
"1. c #0F8E28",
"2. c #239E33",
"3. c #239E2D",
"4. c #02BE2F",
"5. c #06B22D",
"6. c #1CB82A",
"7. c #09A637",
"8. c #05AD36",
"9. c #08A936",
"0. c #04A33A",
"q. c #0AA239",
"w. c #02AA39",
"e. c #06A634",
"r. c #1AA532",
"t. c #04B333",
"y. c #02BB31",
"u. c #09AB26",
"i. c #25A62E",
"p. c #2AAC2A",
"a. c #28A72D",
"s. c #33AD27",
"d. c #31AB28",
"f. c #34B225",
"g. c #25A130",
"h. c #27B925",
"j. c #569B0B",
"k. c #4C8610",
"l. c #45BB1B",
"z. c #4BBD18",
"x. c #45B51D",
"c. c #19D51E",
"v. c #3DDC0F",
"b. c #27D719",
"n. c #3CD414",
"m. c #01C32E",
"M. c #00CC2B",
"N. c #09C429",
"B. c #19C823",
"V. c #02D326",
"C. c #00D228",
"Z. c #0FD322",
"A. c #11D221",
"S. c #00C231",
"D. c #23C422",
"F. c #43DC0E",
"G. c #47D90E",
"H. c #5AD509",
"J. c #4DC016",
"K. c #45CA14",
"L. c #52CD0F",
"P. c #6ACE06",
"I. c #65CD09",
"U. c #67D006",
"Y. c #74D900",
"T. c #5DE202",
"R. c #6FE600",
"E. c #7EEA00",
"W. c #7FE300",
"Q. c #048D43",
"!. c #0A8E41",
"~. c #059241",
"^. c #099241",
"/. c #82E600",
"(. c #84EC00",
"). c #93EE00",
"_. c #BC886F",
"`. c #D9926C",
"'. c #C58873",
"]. c #D5906F",
"[. c #157388",
"{. c #157E94",
"}. c #277D8E",
"|. c #577E8A",
" X c #4B7682",
".X c #178499",
"XX c #1E96AA",
"oX c #219EB1",
"OX c #23A8BB",
"+X c #39AFBD",
"@X c #5D848A",
"#X c #668386",
"$X c #79979D",
"%X c #6F9097",
"&X c #459AA8",
"*X c #26ADC0",
"=X c #2EBACD",
"-X c #28B2C6",
";X c #36B4C3",
":X c #36C7D8",
">X c #A38E83",
",X c #C79D8B",
"<X c #DCA38D",
"1X c #F0BC9B",
"2X c #F9CFB2",
"3X c #FBD1B3",
"4X c #FCDCC6",
/* pixels */
"*.*.m.9.-.7.q.>.>.>.V.t.-.y.>.>.9.,.t.*.0.M.>.t.q.q.q.~.J.f.~.r.",
"q.q.*.-.m.C.-.t.y.>.t.V.-.y.m.q.y.9.>.8.*.=.Q.~.>.-.!.x.F.s.i.n.",
"q.M.m.*.y.-.>.t.~.^.^.q.q.S.>.&.1.;.7.C.^.J.E.T.0.,.=.n.A.i.M.S.",
">.-.V.7.y.y.w.x.U.a.9.y.!.z a 8 5 - a ;.m.0.o.Z.=.*.9.t.M.0.-.y.",
"q.*.,.,.y.=.z.A.z.^.9.$.; 7 w r t w 0 O s %.~.Q.~.~.q.q.w.g.s.d.",
"m.^.s.Y.x.Q.D.y.!.^.y.* 7 t ) _ ) ( t e 5 s i.I.I.I.Q.-.2.n.F.J.",
"q.-.a.B.B.p.=.-.9.M.n 8 r ) ` [ _ ] _ ) w $ Q.l.Z.S.H.,.F.S.K.Q.",
"m.8.8.y.0.9.q.S.-.^.d 6 / ' ' [ _ [ ' ) ( # m.=.h.w.V.r.~.y.~.*.",
">.>.t.>.*.>.q.-.t.9.m 5 / [ ' [ ) ] ] ( t @ q.q.0.q.q.q.:.f.p.s.",
">.8.t.>.>.t.4.-.M.q.- + t _ ' ) / r ) w q u z 9.y.q.^.t.N.D.).J.",
"M.,.9.t.S.%.m.y.>.S.M { 7 / ) ( r e r 4 9 ..d B.y.9.^.,.w.G.Q.=.",
"q.>.4.q.q.Q.=.-.9.V.M _.o 6 w e e 6 e + u '.j.H.y.9.q.9.w.Q.Q.0.",
"9.-.t.*.g./.K.,.-.q.v Q o o O 0 4 7 O . u W ~.~.!.q.9.,.g.W.E.6.",
"9.-.y.-.Q.I.b.s.w.y.2.j.@ X o O o 3 . . , 7.t.t.t.q.y.t.w.g.6.w.",
"*.>.t.9.m.Q.S.F.!.=.v.x.Z u 8 O X p y i k m.4.!.t.!.!.t.^.C.^.^.",
"q.m.!.!.=.*.y.t.-.M.@.R {.[.Y o 4 + I .XK C q.^.a.P.8.t.9.q.^.^.",
"q.q.g./.K.,.-.>.m.q.m >XP *XI 6 r 4 OXXXI  .b -.p.c.8.8.0.v.U.~.",
"q.M.^.r.v.N.m.7.>.c E `.J OXU q / @ =X.X| `.m -.;.w.>.t.>.m.B.*.",
"*.q.q.~.y.-.-.q.4.d '.X.[.;X;Xu w J :XOX! `.V -.m.>.w.*.>.%.>.q.",
">.y.~.z.y.q.-.0.D.p ].N P =X:X2 u +X=XXXG { _.1.-.!.v.S.q.m.%.y.",
"9.*.f.b.y.-.9.-.g <X,X< G XX-X&XJ :XOX{.> } 4XC ;.0.U.6.-.M.m.-.",
"y.!./.n.0.-.y.q.g 1X2X| A [..X[.}.XX{.H Y 1X4Xp $.m.!.*.*.-.-.4.",
"^.S.0.Q.S.9.-.9.g '.3X| F  X|.@X|.|.|.^ i <X2Xp $.-.M.m.%.m.t.%.",
"t.^.g.I.J.*.-.m.<.k  ., S @X$X$X$X$X%X^ 2 N E +.%.4.m.,.>.q.>.t.",
",.^.f.b.w.^.f.s.*.*.m.u.S #XS T T T T ^ k./.i.4.4.-.q.-.9.7.q.C.",
"9.-.,.r.t.0.b.R.~.*.-.<.l #X~ l j ^ |.l 5.6.a.=.-.4.M.*.t.V.9.-.",
"t.t.m.!.t.>.~.K.=.*.*.x % > 1 g j 1 > % x 0.%.8.m.%.-.7.>.8.8.4.",
"q.!.q.J.z.^.-.^.*.t.w.=   > : s h : :   * Q.4.=.q.^.=.m.>.t.9.-.",
"m.q.>.!.t.q.S.*.-.^.F.f   < : = & : 2   h c.U.Q.:.L.U.w.>.!.G.M.",
">.-.q.m.9.t.t.8.*.>.t.@.% :   h a   : % #.a.r.=.r.V.6.!.m.q.-.-.",
"-.,.*.8.M.q.8.m.-.9.*.*.b v x ;.3.j.+.c -.r.E.o.i.8.8.*.t.>.8.-.",
"t.*.,.>.9.>.C.q.9.5.*.*.-.M.m.*.;.Q.4.e.*.a.h.b.B.=.4.q.,.*.t.9."
};
