/* XPM */
static char *_ec16795cfdf4528d57bba30088cf19elKHfFqD31u2HZ2G0[] = {
/* columns rows colors chars-per-pixel */
"32 32 196 2 ",
"   c #1F0407",
".  c #121412",
"X  c #1B1C1C",
"o  c #151B16",
"O  c #1B180F",
"+  c #240408",
"@  c #36070C",
"#  c #301E0F",
"$  c #3F0910",
"%  c #2A1811",
"&  c #2E0F11",
"*  c #172B18",
"=  c #1A3B1A",
"-  c #24341C",
";  c #24390C",
":  c #1E2529",
">  c #183B21",
",  c #242424",
"<  c #2D2A27",
"1  c #2D3928",
"2  c #303F2A",
"3  c #313E37",
"4  c #41070E",
"5  c #43080F",
"6  c #430910",
"7  c #4B0911",
"8  c #530B13",
"9  c #5B0E16",
"0  c #441215",
"q  c #69141B",
"w  c #78161D",
"e  c #610E17",
"r  c #503C3E",
"t  c #482D2B",
"y  c #6F3532",
"u  c #164D18",
"i  c #135A1B",
"p  c #0F5E1B",
"a  c #215C0E",
"s  c #106216",
"d  c #0D4321",
"f  c #1A4421",
"g  c #155428",
"h  c #135E2C",
"j  c #2E462A",
"k  c #2E4F30",
"l  c #19662A",
"z  c #0A7928",
"x  c #0E7B34",
"c  c #157534",
"v  c #0A652B",
"b  c #2B7F20",
"n  c #246032",
"m  c #74493F",
"M  c #253B43",
"N  c #095259",
"B  c #395A4A",
"V  c #3B5C52",
"C  c #334E47",
"Z  c #1D7957",
"A  c #1C5669",
"S  c #0C5767",
"D  c #22596C",
"F  c #136B72",
"G  c #236777",
"H  c #4F5540",
"J  c #4A5B56",
"K  c #734B46",
"L  c #7D655E",
"P  c #526F73",
"I  c #72777D",
"U  c #80191F",
"Y  c #831A20",
"T  c #8C1E23",
"R  c #901F23",
"E  c #8F2023",
"W  c #932225",
"Q  c #9E2728",
"!  c #992326",
"~  c #A5292A",
"^  c #B62E2E",
"/  c #8C493F",
"(  c #8B5346",
")  c #AD6758",
"_  c #A77867",
"`  c #B97D64",
"'  c #C7755B",
"]  c #13B01B",
"[  c #38BB1F",
"{  c #0A8827",
"}  c #0C8E34",
"|  c #0A8537",
" . c #118E3F",
".. c #118337",
"X. c #0E943D",
"o. c #049B3D",
"O. c #0C9B3B",
"+. c #089A38",
"@. c #1A9C37",
"#. c #10913E",
"$. c #159939",
"%. c #14882F",
"&. c #239E33",
"*. c #259F27",
"=. c #06A728",
"-. c #02BE2F",
";. c #07B62F",
":. c #1CB82A",
">. c #09A637",
",. c #05AD35",
"<. c #08A936",
"1. c #05A33A",
"2. c #0AA239",
"3. c #02AA39",
"4. c #19A632",
"5. c #04B333",
"6. c #02BB31",
"7. c #25A62F",
"8. c #2AAB2A",
"9. c #28A72D",
"0. c #33AD27",
"q. c #31AB28",
"w. c #34B225",
"e. c #25A130",
"r. c #27B925",
"t. c #2F930E",
"y. c #44BB1B",
"u. c #4BBD18",
"i. c #45B51D",
"p. c #19D51E",
"a. c #3DDC0F",
"s. c #27D719",
"d. c #3AD513",
"f. c #01C32E",
"g. c #0AC22B",
"h. c #00CB2B",
"j. c #19C823",
"k. c #02D326",
"l. c #00D228",
"z. c #0FD322",
"x. c #11D221",
"c. c #00C231",
"v. c #23C522",
"b. c #44DA0E",
"n. c #5AD509",
"m. c #4DC016",
"M. c #45CA14",
"N. c #52CD0F",
"B. c #6ACE06",
"V. c #65CD09",
"C. c #6BD005",
"Z. c #62D108",
"A. c #74D900",
"S. c #5DE203",
"D. c #6FE700",
"F. c #7EEA00",
"G. c #7FE300",
"H. c #048D43",
"J. c #0A8D41",
"K. c #049241",
"L. c #099240",
"P. c #82E600",
"I. c #84EC00",
"U. c #92ED00",
"Y. c #B68876",
"T. c #C88A6D",
"R. c #D9967A",
"E. c #E8A076",
"W. c #1F7588",
"Q. c #217B8C",
"!. c #288896",
"~. c #1C92A6",
"^. c #209BAD",
"/. c #209EB1",
"(. c #23A3B6",
"). c #27ACBE",
"_. c #5F8890",
"`. c #69868C",
"'. c #27ADC0",
"]. c #37C6D7",
"[. c #40D5E4",
"{. c #BA9582",
"}. c #B4B4B3",
"|. c #C39C86",
" X c #D69580",
".X c #DAAC93",
"XX c #E5AD8D",
"oX c #E2B195",
"OX c #C9B9A7",
"+X c #C5AEAA",
"@X c #F1BFA2",
"#X c #F3C09E",
"$X c #EDC4AC",
"%X c #F5C6A5",
"&X c #FDD4B6",
"*X c #FBDBC1",
/* pixels */
"X.X.f.<.O.>.2.#.X.X.l.,.O.-.J.#.<.O.5.#.O.h.X.5.2.2.>.K.m.w.K.7.",
"2.2.X.O.f.l.O.5.;.X.5.l.O.;.c.2.;.<.#.5.X.o.H.H.#.O.L.y.b.8.e.d.",
"2.h.f.X.6.O.#.5.H.X.X.2.2.=.c c %.} 2.k.L.M.F.S.1.O.o.M.x.9.h.c.",
"#.O.k.>.6.6.3.i.Z.7.<.;.u $ 7 8 8 # i O.c.1.y.x.O.X.<.,.h.1.o.6.",
">.X.$.$.6.o.u.x.y.L.<.- w w T Y Y w 8 u 6. .L.H.K.K.>.2.3.e.0.q.",
"6.X.q.A.i.H.v.6.J.#.p w E W ~ ~ ~ ! U 8 l -.7.V.V.V.H.X.e.d.b.m.",
"2.O.9.j.j.8.o.O.3.-.0 W Q W ^ W ~ R w e % >.J.y.z.c.n.$.b.c.M.H.",
"f.5.,.6.>.<.O.c.$.L.0 w q e ! q ~ ~ Y e @ ..f.o.r.3.k.4.K.c.K.L.",
"X.#.5.X.X.#.2.O.6.+.4 5 Y._ 9 $ R Y q 9 $ f 2.2.1.2.2.2.&.w.q.q.",
"#.<.5.#.X.5.6.O.h.O.* |.$X&X{.&X8 6 $ 9 7 s J.<.6.2.J.5.g.j.U.m.",
"h.O.<.<.f. .f.6.#.-.l %X&XXXR.%X( y K 7 @ v [ p.6.>.L.2.5.M.H.K.",
"2.#.c.2.O.H.o.O.>.z.h Y.&XL `.OX9 ( T.@ % [ F.n.6.>.2.<.3.H.K.3.",
"<.O.,.#.7.P.M.$.O.>.O.L &XI }.*X7 y ( + g X.H.X.J.2.>.O.e.G.F.:.",
"<.$.-.O.H.V.s.q.3.5.e.t XX&X&X&Xy 0 < . + z ,.,.5.2.6.5.3.e.:.5.",
"X.X.5.<.f.H.c.b.J.o.a.  t ` R.' 8 : S k + @ ;.J.5.L.J.5.$.l.L.L.",
"2.f.J.H.o.X.-.5.O.h.g.  A A D D 7 W._.K + 7 u L.9.C.3.,.<.o.L.L.",
"2.>.e.P.M.$.O.#.f.2.f.M '.'.'.].M W.OXT.+ 6 = O.8.p.<.,.1.a.B.L.",
"O.h.L.4.a.g.f.<.X.o.K.G [.'.].[.!.P E.T.= + u >.X.3.#.5.X.c.j.X.",
"O.O.2.L.6.O.O.2.6.d.U.Z (.(./.].W.) @X( =.+ z 2.f.X.3.X.X. .X.O.",
"#.6.K.u.6.2.O.2.v.:.8.0.S ~.^.W.t oXoXk 5.s %.h.O.L.a.c.O.-. .f.",
"<.X.w.s.6.O.>.O.>.X.3.X.F /.P +X.X@X( ..2...+.f.X.1.B.j.+.h.6.O.",
"6.H.P.d.1.O.6.2.c.X.-.>.N A {.$X&X_ n f.O.X.X.X.O.-.J.X.O.O.O.f.",
"J.c.1.H.f.<.O.2.2.f. .l 1 H ' %X` m j >.<.h.O.O.X.O.h.f. .f.5.#.",
";.o.e.V.y.o.O.h.X.,.6.l k C r t m B 1 { L.K.O.,.J.f.f.$.#.>.#.<.",
"#.L.w.s.3.L.w.q.o. .f.{ C B 3 2 J _.V - S.I.e.6.-.$.>.O.<.>.>.h.",
">.$.@.4.5.1.s.D.K.| > * o : h | 2 C , . z :.9.O.O.-.f.X.5.l.<.2.",
"6.5.c.J.5.X.K.M.o.> , , . . b 4.{ o X : . 3.J.5.f. .O.<.#.<.<.-.",
"O.L.2.u.u.K.X.O.X.z . X . ; D.;.x o < , . H.c.O.2.L.K.h.#.5.3.O.",
"f.2.#.J.3.O.f.#.O.J.t.a d | o.X.v X , o z z.C.K.@.N.V.,.#.J.b.h.",
"#.O.2.f.<.6.5.5.X.X.5.5.+.-.1.X.*.] } x O.7.4.H.4.h.j.J.f.>.o.$.",
"O.$.X.,.h.2.<.f.O.<.X.X.X.O.<.O.7.B.3.X.O.4.F.[ e.,.,.#.;.#.<.O.",
"5.X.$.#.<.X.l.2.<.;.X.X.2.h.f.O.X.L.-.2.O.7.w.s.j.O.c.2.#.#.6.<."
};
