/* XPM */
static char *_70f2fcd58384a96b6df32773b7d2671O60rweVxdbVsjT8X[] = {
/* columns rows colors chars-per-pixel */
"32 32 196 2 ",
"   c #020004",
".  c #020109",
"X  c #0A000D",
"o  c #0B0F0E",
"O  c #0B0016",
"+  c #130016",
"@  c #15001A",
"#  c #1A011D",
"$  c #1A0B1A",
"%  c #0F1012",
"&  c #121415",
"*  c #171B19",
"=  c #3A1815",
"-  c #17211C",
";  c #1B231D",
":  c #1D0022",
">  c #1E0F21",
",  c #1B1520",
"<  c #230226",
"1  c #250229",
"2  c #29022D",
"3  c #2A0D2D",
"4  c #260C27",
"5  c #2C0131",
"6  c #2F0933",
"7  c #320536",
"8  c #350539",
"9  c #360C39",
"0  c #331336",
"q  c #271829",
"w  c #1D2521",
"e  c #252525",
"r  c #252C29",
"t  c #292D2C",
"y  c #212A27",
"u  c #29322E",
"i  c #292F31",
"p  c #392C3A",
"a  c #352536",
"s  c #2C3433",
"d  c #2E3A33",
"f  c #2B3C3B",
"g  c #323B36",
"h  c #343C39",
"j  c #3C343C",
"k  c #373227",
"l  c #570000",
"z  c #592421",
"x  c #642D2D",
"c  c #35413B",
"v  c #39433F",
"b  c #39483F",
"n  c #3E0C43",
"m  c #451847",
"M  c #442B49",
"N  c #512255",
"B  c #56245A",
"V  c #503C57",
"C  c #3D4643",
"Z  c #3D4A48",
"A  c #434E4A",
"S  c #474649",
"D  c #574846",
"F  c #48534E",
"G  c #45504C",
"H  c #574758",
"J  c #4C5351",
"K  c #4E5954",
"L  c #535454",
"P  c #575B59",
"I  c #67584A",
"U  c #765657",
"Y  c #53615A",
"T  c #6E645F",
"R  c #76755D",
"E  c #655C66",
"W  c #5A6160",
"Q  c #656565",
"!  c #766B77",
"~  c #777779",
"^  c #927668",
"/  c #AB7B7C",
"(  c #38BB1F",
")  c #118E3F",
"_  c #0E943D",
"`  c #059B3D",
"'  c #0C9B3B",
"]  c #06953F",
"[  c #1B9C36",
"{  c #10913E",
"}  c #159A39",
"|  c #239D33",
" . c #02BE2F",
".. c #1ABA2A",
"X. c #1DB829",
"o. c #09A637",
"O. c #05AC36",
"+. c #08AA36",
"@. c #04A33A",
"#. c #0AA239",
"$. c #02AA39",
"%. c #19A632",
"&. c #05B233",
"*. c #01BB31",
"=. c #25A62F",
"-. c #2AAC2A",
";. c #28A72D",
":. c #33AD27",
">. c #31AC29",
",. c #31B325",
"<. c #38B124",
"1. c #25A130",
"2. c #27B925",
"3. c #45B51D",
"4. c #45BC1B",
"5. c #4BBD18",
"6. c #19D51E",
"7. c #3EDB0F",
"8. c #25D719",
"9. c #29D619",
"0. c #38D414",
"q. c #01C32E",
"w. c #00CB2B",
"e. c #0DC329",
"r. c #1DC424",
"t. c #15CC23",
"y. c #02D326",
"u. c #00D228",
"i. c #0FD322",
"p. c #11D221",
"a. c #00C231",
"s. c #00CA32",
"d. c #21C622",
"f. c #5DCB0D",
"g. c #42DC0D",
"h. c #47D90E",
"j. c #5AD509",
"k. c #4DC016",
"l. c #4ACF11",
"z. c #44C815",
"x. c #46D111",
"c. c #6BCE06",
"v. c #63CD09",
"b. c #68CD08",
"n. c #6AD006",
"m. c #62D108",
"M. c #74D900",
"N. c #5DE203",
"B. c #7EEA00",
"V. c #7FE300",
"C. c #048D44",
"Z. c #0A8E41",
"A. c #059241",
"S. c #099241",
"D. c #7D837E",
"F. c #82E600",
"G. c #84EC00",
"H. c #93EE00",
"J. c #988D75",
"K. c #B4A57E",
"L. c #CCB471",
"P. c #847B85",
"I. c #898A8A",
"U. c #848585",
"Y. c #918F91",
"T. c #8F9393",
"R. c #9C9C9D",
"E. c #969697",
"W. c #9C9885",
"Q. c #A09C8F",
"!. c #A2898C",
"~. c #AAAF9E",
"^. c #9F98A0",
"/. c #A097A0",
"(. c #A1A3A1",
"). c #A9A8A9",
"_. c #B0AFB0",
"`. c #B7B7B6",
"'. c #ACB3AB",
"]. c #CDBA8A",
"[. c #C1BDB1",
"{. c #C8BFA8",
"}. c #D9C890",
"|. c #F0DB9C",
" X c #F0DFA5",
".X c #FFEBA7",
"XX c #F5E5B4",
"oX c #C4C6C4",
"OX c #CACDD3",
"+X c #FFFFC9",
"@X c #EBEEEB",
"#X c #E1E3E1",
"$X c #EDF3ED",
"%X c white",
"&X c #FCFDFC",
"*X c #F4F6F8",
/* pixels */
"_ _ q.+.' o.#._ _ _ u.O.'  .) _ +.' &._ #.w._ &.#.o.@.` k.,.A.1.",
"#.#._ ' q.u.' &.&.{ &.).E ~ ~.#.&.+.) &._ ` C.C._ } S.4.g.>.1.0.",
"#.w.q._ *.' { &.C.' ' X 2 2 < X   H R.u.A.z.B.N.` ' A.z.p.1.w.a.",
"{ ' y.o.&.*.$.3.m.;.@.a < 5 7 7 7 < # # ! @.4.p.#._ O.&.w.@.' *.",
"#._ [ } *.` k.i.3.S.+.a : 1 7 7 7 7 8 4 7 3 S.C.A.A.#.#.$.1.:.>.",
"q.S.>.M.3.C.d.*.Z._ *.X 1 4 7 7 7 7 7 n 1 8 H m.f.b.A.A.1.0.g.k.",
"#.' ;.t.r.-.` ' +.w.$ @ 1 7 7 5 5 7 7 9 4 7 < 3.p.s.j.} h.a.z.C.",
"q.O.O.*.@.+.' q._ ` n B m 0 1 3 M @ 1 8 < 7 7 ` 2.$.y.%.A.*.` _ ",
"{ { &.{ _ { #.' &.! m N N N m _.oX$X/.H @ : 2 ' ` #.' #.[ <.-.:.",
"{ O.&.{ _ &. .' Y.+ # @ 6 m 8 @X$X*X%X%X%XoX4 +.*.#._ &.e.t.H.k.",
"w.} O.&.q.) q.*.  8 7 2 5 + p oX%X%X`.`.*X#Xp 6.*.o.{ } &.x.C.` ",
"#.{  .#.#.C.] P.# 7 7 7 3 k * L [.OX*X%X%X&Xa j.a.o.#.O.$.A.C.@.",
"o.' &._ 1.F.l.}   2 7 5 I XX~ . I .X].{.oXL P.] { #.+.' 1.V.B.X.",
"+.' *.' C.v.8.:._.q < 7 4 '.!.J.}. X+Xe o   O.&.&.#.*.O.$.| X.&.",
"{ { &.+.q.C.a.x.Z.' % @ 5 X x S @ O D Q.T S *.{ &.Z.{ &.' u.Z.S.",
"#.q._ C.` _  .H < X d C ; $ O @ 5 7 # W.$ %.#._ 1.n.$.O.o.A.S.' ",
"#.o.1.F.x.} 6 2 7 : D._.+ p ' Y.p   + . R.' ' ' -.6.O.O.#.7.b.] ",
"#.w.Z.%.7.5 : 2 2 $ P Q w + P.] _ ` ' = E.Z.w.o.] $.{ &._ q.d.] ",
"{ #.+.S.M U ^ g r K r h b ; : K.i P f l y.+.&.#.q.) $._ _ ) _ #.",
"{ *.A.3.*.L.R t F F t L g * m |.Z % k = P u.' w.' ] 7. .'  .)  .",
"o.' <.8.a.f s & C J t h * J V }.s , z * I.) #. .' @.c...' w.q.' ",
"*.Z.G.( #.t h h * t d c h @.#.u.+.` x J #.{ ' _ ' q.) ) _ ' '  .",
"S.a.$.C.q.u g S t $ 2 < J @.Z.S.A.A.P.%.o.w._ ' _ ' w.w.) q.&.) ",
"&.#.1.b.k.` u - X e   q '.0 ^ 4.f.v.#.*.] A.' O.)  .q.} { o.{ O.",
"{ _ <.8.$.S.  < 3 _ q.Q ! 2 # A.x.0.| [ N.B.1.*. .' #.' o.o.o.u.",
"o.' [ %.&.^.1 : C.' ' o./.# 1 % >.8...c.s.X.-.' '  .w._ &.u.+.' ",
"&.&.a.C.&.- 3 : S.' } S.(.c Y g #.` +.$.` #.S.O.q.) _ +.{ +.+. .",
"#.{ #.k.U.s Y w ' &.$.A.} e s w _ _ r.b.4.C.*.#.#.] ] w.{ &.$.' ",
"q.#._ S.L h y K ' S.g.7.` r A Z ~ $.) ] @.6.n.A.} j.b.$.{ ) h.w.",
"_ _ #.(.C F C W h R.&.&.P c A F K v R.] ' -.%.C.%.y...) q.o.` ' ",
"_ ' { L w s g C G w _ _ } I.S & d A g _ ] %.G.( =.$.$._ &.{ +.' ",
"&.{ ' _ o._ u.).E.I._ _ #.w.q.' _ Y.U.#._ =.,.9.t.`  .o.} _ &.+."
};
