/* XPM */
static char *result[] = {
/* columns rows colors chars-per-pixel */
"32 32 191 2 ",
"   c #2D772D",
".  c #257C2F",
"X  c #29792F",
"o  c #227E32",
"O  c #366B29",
"+  c #5D5D18",
"@  c #4B5B1C",
"#  c #46691F",
"$  c #567A1E",
"%  c #55631A",
"&  c #6D671E",
"*  c #776A1E",
"=  c #466B28",
"-  c #5A6723",
";  c #477221",
":  c #656C28",
">  c #7A6A29",
",  c #895E1D",
"<  c #967826",
"1  c #876F2B",
"2  c #AD7E29",
"3  c #917D43",
"4  c #87744C",
"5  c #3C831F",
"6  c #39BB1F",
"7  c #37BB1F",
"8  c #1C882E",
"9  c #118E3F",
"0  c #1D8535",
"q  c #0D943D",
"w  c #049C3D",
"e  c #0C9B3B",
"r  c #06953F",
"t  c #189030",
"y  c #1A9C36",
"u  c #10913E",
"i  c #1B963C",
"p  c #159A39",
"a  c #139937",
"s  c #1D9A28",
"d  c #26942C",
"f  c #3C9D2E",
"g  c #2A9B35",
"h  c #339230",
"j  c #02BE2F",
"k  c #0BBA2D",
"l  c #09B42E",
"z  c #1ABA2A",
"x  c #1DBA29",
"c  c #09A637",
"v  c #05AD35",
"b  c #08A936",
"n  c #04A33A",
"m  c #0AA239",
"M  c #02AA39",
"N  c #15A633",
"B  c #1FA232",
"V  c #17AA32",
"C  c #04B333",
"Z  c #01BB31",
"A  c #25A62F",
"S  c #2AA42E",
"D  c #29AD2A",
"F  c #24AB2D",
"G  c #33AD27",
"H  c #39AE25",
"J  c #32AB28",
"K  c #26BC25",
"L  c #31B325",
"P  c #38B124",
"I  c #25A130",
"U  c #45B51D",
"Y  c #44BB1B",
"T  c #4BBD18",
"R  c #498F24",
"E  c #469237",
"W  c #7C8A3A",
"Q  c #7DA03B",
"!  c #14D71E",
"~  c #1ED31D",
"^  c #14D91D",
"/  c #3DDB0F",
"(  c #24DA18",
")  c #27D619",
"_  c #3AD513",
"`  c #01C32E",
"'  c #0AC22B",
"]  c #00CC2B",
"[  c #03CF27",
"{  c #1CC424",
"}  c #15CC23",
"|  c #03D226",
" . c #00D228",
".. c #0FD322",
"X. c #11D221",
"o. c #00C331",
"O. c #23C522",
"+. c #5BCB0E",
"@. c #42DC0D",
"#. c #49DD0B",
"$. c #44D70F",
"%. c #5DD10A",
"&. c #5EDE03",
"*. c #45C616",
"=. c #4DC016",
"-. c #45CE13",
";. c #47C815",
":. c #50C314",
">. c #48D111",
",. c #6ACD06",
"<. c #62CD0A",
"1. c #68CD08",
"2. c #6AD006",
"3. c #65D207",
"4. c #74DA00",
"5. c #5DE202",
"6. c #64E600",
"7. c #6FE700",
"8. c #7EEA00",
"9. c #78E500",
"0. c #49CD20",
"q. c #048D43",
"w. c #0A8D42",
"e. c #059241",
"r. c #099340",
"t. c #149241",
"y. c #6CB75B",
"u. c #3FC254",
"i. c #7BC640",
"p. c #868026",
"a. c #958528",
"s. c #928E3C",
"d. c #868534",
"f. c #BA932D",
"g. c #AE9430",
"h. c #AB8630",
"j. c #A9A12D",
"k. c #BAA335",
"l. c #C2AC3C",
"z. c #CBAA34",
"x. c #DABE3A",
"c. c #88D118",
"v. c #82E600",
"b. c #87EA00",
"n. c #92ED00",
"m. c #DDC33B",
"M. c #928552",
"N. c #999658",
"B. c #B39D52",
"V. c #BCA155",
"C. c #AFB14E",
"Z. c #A59E70",
"A. c #B29E77",
"S. c #B8A47B",
"D. c #C9B85D",
"F. c #C1A964",
"G. c #D7BF67",
"H. c #C9B674",
"J. c #D8C544",
"K. c #D9C955",
"L. c #E4CE41",
"P. c #EBDC4E",
"I. c #E8D653",
"U. c #EEE149",
"Y. c #F6EE56",
"T. c #DACE73",
"R. c #E9DB60",
"E. c #F9F361",
"W. c #F9F36D",
"Q. c #F3EA7C",
"!. c #FAF475",
"~. c #98BD89",
"^. c #BEAE8D",
"/. c #B9BC84",
"(. c #CAB987",
"). c #AAD48A",
"_. c #C0C690",
"`. c #D6CA92",
"'. c #E0D697",
"]. c #E9DC89",
"[. c #F6EF87",
"{. c #F7F28E",
"}. c #F9F587",
"|. c #F8F495",
" X c #EFE5A6",
".X c #F9F5A0",
"XX c #FAF7AE",
"oX c #FAF7B4",
"OX c #F9F5B6",
"+X c #FAF8CB",
"@X c #FAF9DC",
/* pixels */
"q q ` b q b m q q a ] C e j u q b e C q m ] q C m m n n =.D e.I ",
"c m q e `  .e C C q C | e Z ` m l b u v q w q.q.q p r.U @.J S _ ",
"e ] ` q Z e u C q.q e m m ` 9 q c c m  .r.*.9.5.n e e -.X.A ] o.",
"u m | c C Z M U 3.A c Z 9 9 ` e C  .b e Z n Y ! w q b M ] n r.Z ",
"m q y u Z w T X.U r.b q ] b w w u C v j j 9 e.q.e.e.c c M S J J ",
"j r.L 4.U e.O.Z w.u Z M r w 1.<.e.q q e c j A 3.+.1.q.r.I _ @.=.",
"m e S } { D w e c ] p P S q o.6.q.B H V e m q.Y X.o.%.p $.o.*.q.",
"` v C Z n b e o.e r H #.{ w.r F B b.~ | v u ` w K M | V e.Z w r.",
"u u C u q q m e C b S { q.j m n m q.S K v u n m m m e n y H J L ",
"u v C u 9 C j e ] m v q.*.w m e ` w.Z Z e ` w.b Z m q C ' } n.T ",
"] e v l ` t.` Z u j C q.7.( r b 9 j ] e c e.*.X.Z c r.p C -.q.n ",
"e u o.e m e.r e b | u r J H b | v e e q w Y 8.3.o.c m b M q.e.w ",
"b p C q I v.>.p e c r e.] n u b b j ] j u r q.w.u m c e I 8.8.z ",
"v e Z e q.<.~ G M C g 2.r e q C b m m w.q.v C C C m Z v M g z M ",
"q u C b ` w.o.$.w.w / >.w.` C 9 C u q -.7.[ Z u C w.r.C e ] r.u ",
"m ` w.w.w q Z C e ] ' p q e e ` e n 4.6.S N m q S ,.M v c e e.e ",
"e b A b.>.p q q ` m ` q m  .m m b b e.q.[ e e e D ^ b b n $.1.e.",
"m ] w.y / ' ` c q w e.r.u p   O   a q   : E ` c . = 4 F.g Z { r ",
"q e m q.Z e q m Z _ n.:.. * C.K.H.1 > H.N.d ; 1 S.A.V.j.q 9 q m ",
"a j w T Z n e e O.5 % $ j.W.OX@X@XOX|.h.a.D. X+XT., + s e ` 9 Z ",
"c r 6 ) ` q b t t 0 @ , m.!.oXOX.X!.E.f.[.[.R.g.- 8 1.{ e ] j e ",
"Z q.b.6 e e u.).(.`.`.'.|.|.|.E.Y.U.I.K.x.< = 0 q j w.q e e e j ",
"r.` M q.` b e g : & 1 B.+X}.L.Y.oX2 P.+XC.k e a q e ] ` 9 ` C u ",
"C w I 1.Y e e ` u d M.A.J.p.a.J.{.< 1 z.[.Z.8 b u j ` q a c u b ",
"u q P ) M r.H G i /.H.k.- l = f.XXQ d + h.(.(.8 j e c e c c c  .",
"c e p N Z e ( c._.y.g y b | o d.].0.z ,.j R B.(.f j ` e C  .c m ",
"C C o.w.C q w i.t.e q q y D G f E e M M r m t.s.).t.e b u v v Z ",
"m u n T T r.q r.q C C e.a 4.7.k u r.{ ,.Y w.o.a W ~.e.o.u C M p ",
"Z c u w.v m ` q e r.@./ w w w q e b r.e.M ! ,.e.p +.,.M u w.#.o.",
"q p c ` b C C v q u C C e ` m r D ^ v u e F y e.V  .{ w.` c e m ",
"e e u v ] m b ` e b u q q e b e A ,.M e q B b.6 g v v q C q b e ",
"C u e u b q  .m b C e q m ] ` p r r.Z m r F L ) } w j c u q C b "
};
