/* XPM */
static char *result[] = {
/* columns rows colors chars-per-pixel */
"32 32 196 2 ",
"   c #3F6E1D",
".  c #375D24",
"X  c #1D7D33",
"o  c #376E27",
"O  c #327C20",
"+  c #217734",
"@  c #267C2E",
"#  c #535019",
"$  c #6C4715",
"%  c #7D541A",
"&  c #7A571B",
"*  c #6E5419",
"=  c #4F6F1E",
"-  c #447B1F",
";  c #616516",
":  c #6A5B20",
">  c #466725",
",  c #447829",
"<  c #5B7A28",
"1  c #4D7B3C",
"2  c #777528",
"3  c #677B34",
"4  c #73732B",
"5  c #80561A",
"6  c #845B1D",
"7  c #8E5F1D",
"8  c #8F611F",
"9  c #93631F",
"0  c #8E6727",
"q  c #896825",
"w  c #966620",
"e  c #9B6C23",
"r  c #966A28",
"t  c #97772D",
"y  c #8E6C36",
"u  c #A57529",
"i  c #AA772A",
"p  c #A57529",
"a  c #B17F2D",
"s  c #A07A39",
"d  c #37871B",
"f  c #38BB1F",
"g  c #1E802E",
"h  c #0E8A3F",
"j  c #118E3E",
"k  c #188A34",
"l  c #0D9C35",
"z  c #07943F",
"x  c #0D943D",
"c  c #049C3D",
"v  c #0C9C3B",
"b  c #1A9B36",
"n  c #10923D",
"m  c #159A39",
"M  c #159936",
"N  c #25872D",
"B  c #39872A",
"V  c #2C912F",
"C  c #279A34",
"Z  c #02BE2F",
"A  c #09BA2F",
"S  c #1CB729",
"D  c #0AA536",
"F  c #05AD35",
"G  c #08AA36",
"H  c #04A33A",
"J  c #0AA239",
"K  c #02A939",
"L  c #1FA232",
"P  c #16A832",
"I  c #04B333",
"U  c #02BB31",
"Y  c #10A82A",
"T  c #25A62E",
"R  c #2AA42E",
"E  c #2AAC2A",
"W  c #24AB2D",
"Q  c #33AD27",
"!  c #39AE25",
"~  c #31AB29",
"^  c #24BB24",
"/  c #29B126",
"(  c #31B325",
")  c #38B124",
"_  c #25A130",
"`  c #6E8910",
"'  c #649D09",
"]  c #45B51D",
"[  c #45BB1B",
"{  c #4BBD18",
"}  c #6BA00B",
"|  c #67BF07",
" . c #52912E",
".. c #5E9137",
"X. c #4E8836",
"o. c #68933B",
"O. c #6EA83C",
"+. c #1ED31D",
"@. c #14D81E",
"#. c #3DDB0F",
"$. c #3ED10E",
"%. c #25D619",
"&. c #24DA18",
"*. c #29D619",
"=. c #3AD513",
"-. c #01C22E",
";. c #0AC22B",
":. c #00CB2B",
">. c #1CC424",
",. c #15CC23",
"<. c #03D226",
"1. c #00D228",
"2. c #0FD322",
"3. c #11D421",
"4. c #00C231",
"5. c #23C522",
"6. c #5EC90D",
"7. c #42DC0D",
"8. c #47DB0C",
"9. c #59D10B",
"0. c #4DC016",
"q. c #43CD14",
"w. c #46C715",
"e. c #50C013",
"r. c #48D111",
"t. c #6ACF06",
"y. c #62CD0A",
"u. c #68CD08",
"i. c #6AD006",
"p. c #65D207",
"a. c #73D900",
"s. c #7DD901",
"d. c #5DE202",
"f. c #6FE700",
"g. c #60E500",
"h. c #7EEA00",
"j. c #7FE300",
"k. c #048D44",
"l. c #0A8E41",
"z. c #059241",
"x. c #099241",
"c. c #7F8F45",
"v. c #948537",
"b. c #B5822F",
"n. c #B48A2E",
"m. c #B98431",
"M. c #BC8832",
"N. c #BC9534",
"B. c #B9963F",
"V. c #C79839",
"C. c #D3A43C",
"Z. c #C8AE3D",
"A. c #82E600",
"S. c #87EA00",
"D. c #92ED00",
"F. c #D6C03F",
"G. c #958E41",
"H. c #8C904E",
"J. c #9B9348",
"K. c #BC9C50",
"L. c #A99350",
"P. c #A3A45B",
"I. c #B6AC5A",
"U. c #C59E4D",
"Y. c #C0A048",
"T. c #DEAC41",
"R. c #D7A842",
"E. c #D6B147",
"W. c #CCA650",
"Q. c #C9AA5A",
"!. c #D6B453",
"~. c #E3B947",
"^. c #E1AD51",
"/. c #CBB667",
"(. c #DCBE6A",
"). c #DCC358",
"_. c #EAC749",
"`. c #E9D249",
"'. c #F3DF4B",
"]. c #EDD556",
"[. c #F1D85E",
"{. c #F5E64F",
"}. c #F3E35C",
"|. c #D8C063",
" X c #DEC878",
".X c #E1CA63",
"XX c #E0CF7A",
"oX c #EDDD7F",
"OX c #EDDA6A",
"+X c #F5E86A",
"@X c #F8F06F",
"#X c #F4EA7B",
"$X c #F8F277",
"%X c #EADB82",
"&X c #EEE485",
"*X c #F3EA8A",
/* pixels */
"x x :.D x G J x x n 1.I v Z n n F v I n v :.n I J D H c 0.~ z.T ",
"D J n v -.1.v I I x I 1.v U -.J A G n F x c z.k.n x x.] 7.Q _ =.",
"v :.-.x U v n F k.x v D J -.j n D D J 1.x.w.h.d.H v x.q.3.T :.4.",
"n J 1.D U U K ] p.T G U j j -.v I 1.G v -.H f 3.J x F I :.H x.U ",
"J x b m U c { 3.] x.G x :.F z.H n I F A U j x.k.x.z.D J K R Q Q ",
"U x.Q a.] k.5.U l.n U H v z.i.y.x.x x J D Z T y.6.u.k.x _ =.7.0.",
"D v R ,.>.E c v G :.b ! T x.4.d.k.L ! P J J k.] 2.4.9.m 7.4.w.k.",
":.F F U H G J 4.v x.Q 8.>.x z W L S.+.<.F x -.c ^ F <.P z.4.z.x.",
"l.n I n m x J v I G R >.k.Z v J J k.C ^ F x l J c J v J b Q E ~ ",
"n G I n n I U v :.J I k.w.c J J -.j Z U v  .J.M U L x I ;.+.D.{ ",
":.m G I -.l.:.U n U F k.f.&.x G j Z :.v B I.&X< o , x v I q.k.c ",
"J x.A J J k.x.v G 1.n x Q ! K 1.F v m j 2 ~.`.y % M l G K z.z.J ",
"G v I x _ A.w.m v D x z.:.H n G D ..O.3 ).XX0 s > D J v _ j.h.S ",
"G m U v k.y.%.Q K I C i.z.v n I Y 2 C.Z.~.}.*X#X, k U I K C S F ",
"x.l.I G -.l.4.7.x.c #.r.x.-.I j I X t m.a ^.).u ~.H.x.I v 1.x.x ",
"J :.j l.c x U I v :.;.m x X l Z l P.@Xn.V.@X/.0 & ' K G G x.z.v ",
"J H _ A.q.m x x -.J Z x.X.|.> l H.Z.].V.C._.[. X# d D F H #.t.z ",
"J :.x.L #.;.:.G m x.c x.3 !.0 # &X`.OX~.i U.V.U.$   n I x -.>.x ",
"x v G x.U v x J U =.D.e.P.R.K.E.!.R.V.m.p [.W./.< x K x x x x J ",
"n Z z.{ I J v J 5., o.v.& +XoXi w n.@XoXL.e M.~./.@ $.Z l Z h Z ",
"G x f *.-.v G v G 1 [.~.w _.+XQ.% e T.{.$Xy M.R.`.+ u.5.v :.-.v ",
"U k.S.f c x ..N Y G.E.u w ~.'.(.R.%X^._.`.e 9 C.}.X.+ 2 x v v Z ",
"x.-.K k.4.b !.B L.{.n.|.V.p C.b.T.{.W.p p 7 6 a N.o * v.j -.I j ",
"I J _ y.w.k J.O K.}.T.C.w % b.8 e b.9 $ 7 : 5 $ . = V < n D n G ",
"n x ! %.K x.) Q o P.[.t 8 9 q 7 % ; 6 % ` s.V B < V D v G D D :.",
"D v b P U z.&.f.x.n @ V 2 / h X d %.S ' Y S R c m A :.x I 1.G J ",
"I I 4.l.I x c q.z v v n P E ~ P c v K K z J x.I U l.m G l.F G U ",
"J l.J 0.{ x.x x.m I K x.m a.f.A x x >.t.[ l.U J J z.z.:.n I G v ",
"4.D n l.I v -.n v l.7.#.c c z.x c G l.x.H @.i.z.m 9.t.K x.x.8.:.",
"x m J -.H U I I v n I I J 4.D x E @.I n c W b x.P <.>.x.;.J c m ",
"x v n F 1.J G -.n G x x x v G v _ t.K x v L S.f C K K x I n F m ",
"I x v n D n 1.J G U x x J :.Z v v x.U D x W ( *.,.c U D m x.I G "
};
