/* XPM */
static char *result[] = {
/* columns rows colors chars-per-pixel */
"32 32 192 2 ",
"   c #3C6727",
".  c #2B772E",
"X  c #33742A",
"o  c #397E28",
"O  c #247D32",
"+  c #56591C",
"@  c #61591E",
"#  c #7C5C1C",
"$  c #765B1C",
"%  c #586419",
"&  c #5B7F15",
"*  c #49681B",
"=  c #5D5B21",
"-  c #4C6E26",
";  c #446C26",
":  c #576921",
">  c #427F26",
",  c #526D36",
"<  c #5B762B",
"1  c #776622",
"2  c #727039",
"3  c #777A24",
"4  c #83681F",
"5  c #817219",
"6  c #8F6923",
"7  c #847D27",
"8  c #8B733F",
"9  c #967936",
"0  c #39BB1F",
"q  c #37BB1F",
"w  c #1B922F",
"e  c #118D3F",
"r  c #1A8938",
"t  c #0D943D",
"y  c #039C3E",
"u  c #0C9B3B",
"i  c #06953F",
"p  c #1A9C37",
"a  c #10913E",
"s  c #159A39",
"d  c #159835",
"f  c #228B2A",
"g  c #359326",
"h  c #248532",
"j  c #239E33",
"k  c #02BE2F",
"l  c #0AB82F",
"z  c #1CB929",
"x  c #0AA637",
"c  c #05AD35",
"v  c #08AA36",
"b  c #04A33A",
"n  c #0AA239",
"m  c #02AA39",
"M  c #16A633",
"N  c #1FA232",
"B  c #16AA32",
"V  c #19A931",
"C  c #04B333",
"Z  c #02BB31",
"A  c #17B135",
"S  c #19A72A",
"D  c #25A62F",
"F  c #2AA42E",
"G  c #29AD2A",
"H  c #25A82A",
"J  c #33AD27",
"K  c #39AE25",
"L  c #32AB28",
"P  c #35A127",
"I  c #24BC23",
"U  c #31B325",
"Y  c #38B124",
"T  c #25A130",
"R  c #5B9717",
"E  c #75980E",
"W  c #769911",
"Q  c #45B51D",
"!  c #44BB1B",
"~  c #4BBD18",
"^  c #73B305",
"/  c #7B8A34",
"(  c #14D71E",
")  c #1ED31D",
"_  c #14D91D",
"`  c #3DDC0F",
"'  c #24DA18",
"]  c #27D619",
"[  c #3CD414",
"{  c #01C32E",
"}  c #0AC22B",
"|  c #00CC2B",
" . c #03CF27",
".. c #1CC424",
"X. c #15CC23",
"o. c #03D226",
"O. c #00D228",
"+. c #0FD322",
"@. c #11D221",
"#. c #00C231",
"$. c #23C522",
"%. c #5EC90D",
"&. c #42DC0D",
"*. c #49DD0B",
"=. c #44D70F",
"-. c #5DD10A",
";. c #58D808",
":. c #45C616",
">. c #4DC016",
",. c #43CC13",
"<. c #47C815",
"1. c #48D111",
"2. c #6ACF07",
"3. c #62CD0A",
"4. c #68CD08",
"5. c #6BD005",
"6. c #68D505",
"7. c #73D900",
"8. c #5DE202",
"9. c #6FE700",
"0. c #60E500",
"q. c #7EEA00",
"w. c #7FE300",
"e. c #048D43",
"r. c #0A8E41",
"t. c #178942",
"y. c #059241",
"u. c #099240",
"i. c #238E49",
"p. c #63B454",
"a. c #87A60F",
"s. c #92853D",
"d. c #B7922D",
"f. c #B69735",
"g. c #AE882F",
"h. c #96BC2C",
"j. c #B9A02D",
"k. c #CAA933",
"l. c #C5B137",
"z. c #D5BA39",
"x. c #82E600",
"c. c #88E600",
"v. c #85ED00",
"b. c #93EE00",
"n. c #DBC33A",
"m. c #EAD93E",
"M. c #928545",
"N. c #90885B",
"B. c #8F995F",
"V. c #A08745",
"C. c #B59D49",
"Z. c #BDAE41",
"A. c #A7976C",
"S. c #BDA760",
"D. c #BCA671",
"F. c #D1BC45",
"G. c #CEBD58",
"H. c #CCB966",
"J. c #DAC54B",
"K. c #E2CE44",
"L. c #E4D45F",
"P. c #F9F148",
"I. c #EEE157",
"U. c #F5EC54",
"Y. c #F9F25E",
"T. c #EEE560",
"R. c #F4EB6E",
"E. c #F9F36A",
"W. c #F7F168",
"Q. c #F8F274",
"!. c #9FC585",
"~. c #D0C498",
"^. c #D7C583",
"/. c #E7DB9B",
"(. c #F4EC8C",
"). c #FAF583",
"_. c #FAF68D",
"`. c #EDE393",
"'. c #FAF694",
"]. c #FAF69A",
"[. c #DFD5A1",
"{. c #EEE7A0",
"}. c #FAF7A6",
"|. c #FAF7AB",
" X c #FAF7B4",
".X c #FAF7BC",
"XX c #FAF8BF",
"oX c #F7F3B8",
"OX c #FAF9D6",
"+X c #FAF9D9",
"@X c #FAF8CC",
"#X c #FAF9E2",
/* pixels */
"t t { v u x n t t a O.C u k a a v u C a n | a C x x x y.>.U y.T ",
"x n t u { O.u C C t C o.u Z { n Z v e C t y y.e.t a y.! &.U T [ ",
"u | { t Z u a C y.t s x n { e t x x n O.u.! q.8.b t i ,.X.F | #.",
"a n o.x C Z m Q 3.F m Z e e { u C O.v u k b 0 ( n t v C | m y.Z ",
"x t p s Z y >.+.Q u.v u.| c b y.a C c k Z e i e.y.y.x n m T U L ",
"Z u.L 7.Q e.$.Z r.u.Z v u y.4.3.y.t t n x k D 3.%.4.e.u T [ &.>.",
"x u F X...G y.u v | s Y D u.#.8.e.N K M u n e.! @.#.-.a =.#.:.e.",
"{ c m Z v v n { s u.J *.$.u.u H D c.) o.c t { y I c o.A y.Z y u.",
"a a l u.u t u u C v F ..e.Z n b b e.F I c t n n y n u n p Y G K ",
"u.v C a t C Z u O.n C e.:.b n u { e Z Z u { r.v Z n a C } X.b.>.",
"| s v C { t.{ Z a Z c e.9.' t v e Z | u n y ! @.Z v a n C ,.e.y ",
"n u.l n b y.i t v O.t t L K b o.c u u t y.! q.8.#.x u v m y.e.b ",
"v s C a D x.1.s u x t e.| b t v v l | { t u.e.u.a n v u T w.q.z ",
"v u Z u e.3.] L m C T 6.y.u a C c x u r.r c v C C n Z v m j A C ",
"u.a C v { e.#.=.r.i ` 1.u.{ C e C u.t R W | Z t C r.u.C t | t t ",
"x #.a e.y t k C u | } s t u u { n b ^ 8 g M n t F 2.m c v u y.u ",
"u m D c.,.d t t { n k i n O.u n v d M., | u u u G @.v c b &.4.y.",
"u | t p ` } | x t i y i t h     X @ D.h o e { v t v e C t #...t ",
"u u n e.k u t x C & a.R 1 l.T.Q.F.f.V.$ % f g % * t b u t e t n ",
"t l y ~ Z u u x $.g C.J.W.}.OX|.R.k.K.d.g.G.g.% d r.` #.u { e k ",
"v i 0 ] k d c t x t 3 U. X#XOX}.U.Q.XX]..XH.- l t b 4...b | k u ",
"k e.v.0 y u Z x k . l.Q..X X'.Y.z.XXOX).m.7 w a u { r.t t u u k ",
"r.{ m e.| v u w + j.(.E.'.W.P.).).)._.'.^.4 ; u t u | { a k C a ",
"C u T 3.~ i i  .. s.(._..XJ.U.@X|.I.k.n.E.`.A.; e { { s a x a c ",
"a t Y ] m u.K L r j.[.l.J.g.n.I.L.@XC.+ 5 f.L.{.B.h n u v x x | ",
"v u p M C b ' 7.$ / o M./.6 = 6 $ f.|.9 S F o - N.A.p.t C O.v n ",
"C C #.r.C a y ,.t t 2 ~.< P L B y f 7 S.# x t.C Z O X M a c v k ",
"n a b ~ ~ y.t y.u A !.i.s 7.9.l t i z W h.t.#.y x y.y.{ a C v u ",
"{ x a u.C u { a u r.&.` y y y t y x a e.b _ 5.y.p 1.2.m t r.*.{ ",
"a t x Z m C C C t t C C u { n t G ( c t y H N y.V o...r.#.n y n ",
"t u t C | x v { u v t t t u v u D 5.m t t M v.Y j v c t C t v s ",
"C a s a x t O.n v l t t n | { u t e.k x u H U ] X.u k x a t C v "
};
