/* XPM */
static char *result[] = {
/* columns rows colors chars-per-pixel */
"32 32 217 2 ",
"   c #2C7E2F",
".  c #38782A",
"X  c #287D34",
"o  c #3C6827",
"O  c #4E7C1E",
"+  c #5A6F27",
"@  c #47762C",
"#  c #5A7828",
"$  c #58793A",
"%  c #6A6727",
"&  c #69732A",
"*  c #647032",
"=  c #787931",
"-  c #827C18",
";  c #956B24",
":  c #8B7229",
">  c #987529",
",  c #817C31",
"<  c #8A7432",
"1  c #947536",
"2  c #A2772A",
"3  c #A27E38",
"4  c #8A7F46",
"5  c #399F1F",
"6  c #38BB1F",
"7  c #1A9A2C",
"8  c #0C8D3F",
"9  c #0F8E37",
"0  c #1A8A36",
"q  c #128D3D",
"w  c #198939",
"e  c #1A8338",
"r  c #0D943D",
"t  c #049C3E",
"y  c #0C9C3B",
"u  c #09993B",
"i  c #119E37",
"p  c #1A9C36",
"a  c #11923D",
"s  c #159A39",
"d  c #179536",
"f  c #28862D",
"g  c #3C892A",
"h  c #25972B",
"j  c #3B9A28",
"k  c #228A31",
"l  c #358937",
"z  c #229835",
"x  c #3F9930",
"c  c #1EA028",
"v  c #02BE2F",
"b  c #0AB72E",
"n  c #12B42C",
"m  c #1CB929",
"M  c #0AA637",
"N  c #05AD35",
"B  c #08AA36",
"V  c #04A33A",
"C  c #0AA239",
"Z  c #02AA39",
"A  c #06A536",
"S  c #15A532",
"D  c #1FA232",
"F  c #17AA32",
"G  c #04B333",
"H  c #01BB31",
"J  c #25A62E",
"K  c #2AA42E",
"L  c #2AAD2A",
"P  c #25AC29",
"I  c #34AD26",
"U  c #31AB28",
"Y  c #39AE25",
"T  c #26BC25",
"R  c #31B325",
"E  c #38B124",
"W  c #25A130",
"Q  c #2CA735",
"!  c #5FA21D",
"~  c #45B51D",
"^  c #45BA1C",
"/  c #4BBD18",
"(  c #48B516",
")  c #40A91C",
"_  c #68AC09",
"`  c #438424",
"'  c #468F25",
"]  c #578425",
"[  c #4B932F",
"{  c #448C36",
"}  c #568838",
"|  c #589738",
" . c #5E992C",
".. c #62843B",
"X. c #6D8333",
"o. c #609030",
"O. c #788F30",
"+. c #4AB03E",
"@. c #51A42A",
"#. c #1ED31D",
"$. c #14D81E",
"%. c #3DDB0F",
"&. c #27D618",
"*. c #3CD414",
"=. c #01C22E",
"-. c #00CB2B",
";. c #0BC32A",
":. c #19C823",
">. c #03D226",
",. c #00D228",
"<. c #0FD322",
"1. c #11D421",
"2. c #00C331",
"3. c #13C935",
"4. c #21C622",
"5. c #42DC0D",
"6. c #49DD0B",
"7. c #59D10B",
"8. c #4DC016",
"9. c #45C915",
"0. c #48D111",
"q. c #5BC813",
"w. c #6ACF06",
"e. c #62CD0A",
"r. c #6AC708",
"t. c #67D106",
"y. c #73D900",
"u. c #5DE202",
"i. c #6FE700",
"p. c #60E500",
"a. c #7EEA00",
"s. c #7FE300",
"d. c #048D43",
"f. c #0A8D42",
"g. c #058644",
"h. c #059241",
"j. c #099240",
"k. c #1B9441",
"l. c #399245",
"z. c #5C8748",
"x. c #5E9F43",
"c. c #5A9052",
"v. c #688A44",
"b. c #718948",
"n. c #7F964B",
"m. c #78994C",
"M. c #6E9650",
"N. c #4CA94A",
"B. c #6CA34C",
"V. c #97863A",
"C. c #938B30",
"Z. c #AF872E",
"A. c #A78536",
"S. c #B78E31",
"D. c #BB8D34",
"F. c #B18434",
"G. c #AB9939",
"H. c #BC9336",
"J. c #8EA22C",
"K. c #C69B3C",
"L. c #D49F3F",
"P. c #CCA73A",
"I. c #C8A63C",
"U. c #D3AB3F",
"Y. c #82E600",
"T. c #87EA00",
"R. c #93EE00",
"E. c #988948",
"W. c #819247",
"Q. c #97974A",
"!. c #9B945A",
"~. c #8A965F",
"^. c #A78748",
"/. c #B58E46",
"(. c #B99C45",
"). c #A48C50",
"_. c #8BA859",
"`. c #90A551",
"'. c #95B15C",
"]. c #ACA240",
"[. c #B3AA57",
"{. c #A3A457",
"}. c #B8A467",
"|. c #C69F42",
" X c #C6A544",
".X c #CCA446",
"XX c #CAAA4D",
"oX c #D4AA42",
"OX c #CAB04E",
"+X c #DAB342",
"@X c #D8B74B",
"#X c #CDAF56",
"$X c #CDB151",
"%X c #D1B655",
"&X c #D3B95B",
"*X c #E3BF59",
"=X c #CFAE60",
"-X c #CEBA6E",
";X c #DEC14D",
":X c #E7CD5C",
">X c #E9CE57",
",X c #E4CC54",
"<X c #DAC56A",
"1X c #DEC672",
"2X c #E5CC62",
"3X c #E3CB6F",
"4X c #E7D26C",
"5X c #F1DF62",
"6X c #E9D776",
"7X c #F6EC64",
"8X c #F6EC74",
"9X c #F6EC7C",
"0X c #F2E377",
"qX c #DDCE89",
"wX c #F3E686",
"eX c #F9F598",
"rX c #F7F2AC",
/* pixels */
"r r =.B y M C a a a ,.G y H a r B y G a C -.a H y M M h.8.R h.W ",
"M C r y =.,.y G H a G ,.y H =.C G B a G 8 t d.f.r r h.^ 5.R W *.",
"y -.=.r H y a G j.j.y C C ;.f.r M M C ,.j.9.a.u.V r u 9.1.K -.2.",
"a C ,.M G H Z ~ e.J B b a f.;.y G ,.B y 2.V ^ 1.V r B N -.Z h.H ",
"C j.p s H t 8.<.~ j.B j.-.G h.V a G B =.H q h.d.h.h.M C Z W I U ",
"2.j.R y.~ d.4.H j.j.H Z j.h.t.e.j.j.j.C M H K 7.q.w.d.r W *.5.8.",
"C y K :.:.L h.y B -.s E L j.2.u.d.D E S C C f.^ 1.2.7.s 5.2.9.d.",
"=.B N H V B C =.s j.I 6.4.j.j.J W T.#.>.N a =.t T Z >.F h.2.h.j.",
"a a G a s r C y G B K :.g.2.y C V d.h T N q z z y C C V p Y L E ",
"a B G a a G H y -.C N f.9.V C C =.k.H v s h * [ H C a G ;.:.R.8.",
"-.s N N =.f.=.H a H G d.i.&.y B q H -.y f * , @.H B r y N 0.d.t ",
"C a 2.C C h.h.y B ,.a j.U Y V ,.N y y 0 # ).V._ 2.M y B Z h.d.V ",
"B y N r J Y.9.s y M u d.=.Z a B B v =.` [.<Xm.e a M B y W a.a.m ",
"B y H y d.e.&.U Z H W t.h.y 0 j N M   C.1X[.[ F { v.b N Z z m N ",
"a a G B =.f.2.q.l.s %.0.f.n } v.7 @ = I.$XO.g z.m.l a N y ,.f.j.",
"C 2.j.f.t r H D v.N.n s a l !.= '.].$X.X2 & b.~.| _ C N B h.j.y ",
"C A J T.0.s y 0 B.W.x X f } }.: 4XI.6X|.> 4 ~.z.' j k N V %.w.h.",
"C -.f.D %.;.=.M } E.Q.X.+ : E.A.:XS.<X.XZ.).n.} $ @ f G r 2.:.r ",
"r y V f.H u w l # (.4X#X; ; > /.=X|.&XoX(.V.E.E.B.f s 0 r a r C ",
"a H h./ H C o O.A.XX0X2XS.K.|.I.S.:XrX%XZ.OX=XQ.$ $ ! 7 y H q H ",
"B u E &.H j.p `.%X;X,XU.U.7XeX8X+XoX+XD.F.I.<XqX-X!.O.R y -.v y ",
"H d.T.) @ v.W.A.2 S.P.U.>XrXrX7XH.K.>XwX%XS.> % . n 9 8 y y y v ",
"f.=.Z d.h ..!.}./.#X8X>X@X0X5X+XU.4X8X9X@X2 + f k.j.-.=.q =.G a ",
"N V W w.( k.{ b.A.<XeX6XU.2XwX.X>X*X0X*XD.3 V.} X H 2.y r M a B ",
"a y E &.V   X.E.3 @X9X2XK.2X1XH..X2 .X3 2 C.E.{._.| p y B M M -.",
"M y p S G    .J.% C.I.S.< ].V., /.1 O.- ] ' | B._.n.x.l.G >.B C ",
"G G 2.f.G w 9 ( o + & # @ ] O g b.4 f f k A f.S Q c.M.N.a B B H ",
"C a t 8./ 8 r 8 . . d 8 S y.i.b e $ 5 r.( 8 H C t f.j.3.a G N y ",
"2.M a f.N u =.r s f.5.%.t t h.j.t A q 8 V 1.w.h.s 7.w.Z a j.6.=.",
"a r M =.B H G N a a G G C =.C u L $.N r C J S h.F -.:.f.2.C t y ",
"r y r B ,.i B =.y B a r a C M y J w.Z r y W T.E W N N a G a B y ",
"N r y r M r >.C B H r r C -.=.y u f.v M j.P T &.:.u v M a a H B "
};
