/* XPM */
static char *result[] = {
/* columns rows colors chars-per-pixel */
"32 32 223 2 ",
"   c #37761C",
".  c #365B25",
"X  c #295F29",
"o  c #286A2C",
"O  c #356623",
"+  c #29732A",
"@  c #257A2B",
"#  c #277927",
"$  c #357928",
"%  c #237930",
"&  c #46541B",
"*  c #525119",
"=  c #674715",
"-  c #754C16",
";  c #784E17",
":  c #7A5319",
">  c #725B16",
",  c #6B501B",
"<  c #407F1F",
"1  c #70691D",
"2  c #405D24",
"3  c #5C5E24",
"4  c #6E5C26",
"5  c #486827",
"6  c #5B6526",
"7  c #40722B",
"8  c #5D732C",
"9  c #546F30",
"0  c #467937",
"q  c #557F33",
"w  c #6A6B2A",
"e  c #746524",
"r  c #667423",
"t  c #797527",
"y  c #697733",
"u  c #717D3B",
"i  c #627540",
"p  c #825619",
"a  c #845A1C",
"s  c #8A5D1D",
"d  c #8A6926",
"f  c #956621",
"g  c #956B23",
"h  c #9B6B23",
"j  c #996D2A",
"k  c #97742A",
"l  c #857630",
"z  c #9A7434",
"x  c #8D6B32",
"c  c #A47326",
"v  c #A9762A",
"b  c #AD7B2D",
"n  c #A2762A",
"m  c #B17D2E",
"M  c #A67E33",
"N  c #A97A31",
"B  c #847C43",
"V  c #3F821E",
"C  c #28871E",
"Z  c #2AB11C",
"A  c #1D8629",
"S  c #078F3F",
"D  c #0D883D",
"F  c #118E3E",
"G  c #168733",
"H  c #0D943D",
"J  c #049C3D",
"K  c #0C9B3B",
"L  c #0A9739",
"P  c #1A9D36",
"I  c #10913E",
"U  c #159A39",
"Y  c #179637",
"T  c #179A26",
"R  c #268626",
"E  c #249628",
"W  c #239F32",
"Q  c #37852A",
"!  c #16A324",
"~  c #02BE2F",
"^  c #09B72C",
"/  c #1BB929",
"(  c #09A637",
")  c #05AD35",
"_  c #08AA36",
"`  c #04A33A",
"'  c #0AA239",
"]  c #02AA39",
"[  c #19A632",
"{  c #04B333",
"}  c #02BB31",
"|  c #0EA829",
" . c #25A62F",
".. c #29A52E",
"X. c #2AAC2A",
"o. c #24AA28",
"O. c #33AD27",
"+. c #31AB29",
"@. c #3AA422",
"#. c #31B325",
"$. c #38B124",
"%. c #25A130",
"&. c #4F9E15",
"*. c #6B8E14",
"=. c #48A712",
"-. c #45B51D",
";. c #45BC1B",
":. c #4ABE18",
">. c #48B013",
",. c #66BA05",
"<. c #63833C",
"1. c #18D61D",
"2. c #3DD90F",
"3. c #33CE13",
"4. c #25D719",
"5. c #33CC15",
"6. c #01C22E",
"7. c #00CB2B",
"8. c #0DC128",
"9. c #1CC424",
"0. c #15CC23",
"q. c #00D228",
"w. c #06D325",
"e. c #00C231",
"r. c #00CA32",
"t. c #21C622",
"y. c #4ACF0F",
"u. c #5BCF03",
"i. c #42DE0D",
"p. c #47DB0C",
"a. c #51D20D",
"s. c #4CC017",
"d. c #45C714",
"f. c #6BCE06",
"g. c #63CA09",
"h. c #6AD006",
"j. c #62D108",
"k. c #73D900",
"l. c #5DE103",
"z. c #6FE700",
"x. c #60E500",
"c. c #7FE500",
"v. c #7EEA00",
"b. c #058D43",
"n. c #0A8E41",
"m. c #059241",
"M. c #099241",
"N. c #8F8E1F",
"B. c #93883F",
"V. c #878639",
"C. c #B5852D",
"Z. c #A8863A",
"A. c #B58532",
"S. c #BD8633",
"D. c #B58837",
"F. c #AA8E33",
"G. c #C38D36",
"H. c #C48D38",
"J. c #C19939",
"K. c #C89639",
"L. c #CDA63B",
"P. c #D4AB3B",
"I. c #DCB23E",
"U. c #8DDF01",
"Y. c #83E900",
"T. c #969349",
"R. c #8D934B",
"E. c #AA8945",
"W. c #B18F4D",
"Q. c #A79948",
"!. c #B89549",
"~. c #B79856",
"^. c #A59960",
"/. c #BAAC68",
"(. c #C39F56",
"). c #C9A546",
"_. c #DBAC42",
"`. c #C9AB5A",
"'. c #CBBF5E",
"]. c #D6B657",
"[. c #CDAF51",
"{. c #E5B645",
"}. c #E8BE46",
"|. c #E3B949",
" X c #E5B34B",
".X c #CBB66A",
"XX c #D1B667",
"oX c #CBAB63",
"OX c #BCC265",
"+X c #DAC354",
"@X c #E7C149",
"#X c #EAC44C",
"$X c #EBC946",
"%X c #EED045",
"&X c #EBD149",
"*X c #F2DB4B",
"=X c #F1D845",
"-X c #E4CB5A",
";X c #E7CA55",
":X c #F2DB56",
">X c #EFD55A",
",X c #F5E449",
"<X c #F5E45D",
"1X c #D6C866",
"2X c #D9C876",
"3X c #CEC367",
"4X c #E6C869",
"5X c #EAD66A",
"6X c #E0CE70",
"7X c #E4D47C",
"8X c #ECD773",
"9X c #F1DA7D",
"0X c #F6EB6B",
"qX c #F4E467",
"wX c #EFE17E",
"eX c #F5E876",
"rX c #F8F17D",
"tX c #F9F474",
"yX c #E9DA84",
"uX c #ECE181",
"iX c #F4E787",
"pX c #F7F089",
"aX c #F6ED96",
/* pixels */
"H H 7.( K ' ' H I I q.{ K ~ I I _ K { I K 7.H { ' ' ' m.s.#.m. .",
"' ' I K 6.q.K { { M.{ q.U } 6.' } ( I { H J b.m.L I n.-.i.O.%.2.",
"' 7.6.H } K I { n.L K ' ' 6.n.I ( ' ' w.S d.c.j.V.Q./.=.0...r.e.",
"I K q.( } } ] -.j.X.` ~ I F 6.K } q.( K ~ ` ;.! G.}.2XA 7.` J } ",
"' H P I } J :.0.-.m.( H r.{ m.J I ) ) ~ } F b.o b ].N @ T.u < +.",
"6.M.O.k.-.b.t.e.M.I } ] K M.j.u.m.H L U 0 <./.t .X4 X o D.6X3X&.",
"' H ..0.9.X.J H _ r.P $...M.} l.b.W @.e 0XaX%XZ.}.+X1Xq *.;X1 b.",
"6.{ { } ` _ ' 6.U M.O.p.t.M.L o.R T.^.f _.$XS.2XN H.&Xx O : G H ",
"I n.{ I I I ' ' { _ ..9.n.~ K # `.;XqXoXm m c wX`.XXE.& Y V X.#.",
"I { { I I { ~ U 7.' ) b.5.J ' # !.iX}.D.: - m #X}.<XuX= ^ Z Y.s.",
"7.U _ { 6.n.6.6.I } { b.,.5.L # S.*X].M Z.s s v G.{.@X= O Z.i J ",
"' I ~ ' ` b.J H _ w.n.% 3X/.B ! : C.).qXpXM - ; c ].`.; +XW.3 ' ",
"( U { I %.Y.y.I H _ H 5 $X&X/.A * h 4X5X;XD.h p C.,XtXz S.N.Y./ ",
") H } ' b.g.4.+._ } P ,.k -X.Xe E.s m ~.j 4XiXZ.v }.{.p & E / { ",
"H I { ( 6.b.e.p.b.H 2.y.. P.-Xk eX!.K.:XaX|.*XXXs b j Z..X! n.M.",
"' e.M.n.J H } { @ <   l Z.s g v L.h c H.4XK.;X!.2XyXW.+X2X% m.U ",
"K ` ..Y.d.T.0 9 2XyXz L.>XD.s s f p ; f XX7XyX[.%X*X3Xh Z.>.h.S ",
"' 7.n.[ y.F.OXJ.=X*X].h H.h `.].9X(.f h }.$X*X8X=X%XV._ 3 E 9.L ",
"L K ' D ~ 5 J.b {.$XL.p p b =XrX<XpXoXx k H.I.l r 6 Y K H D S ' ",
"I ^ $ &.{ K , 1 j b h p = v $XP.}.&X0XtX~.s Z.y G n.2.6.K t y | ",
"_ o g [.Q L <.R.5X7X.Xn ; f S.f K._.%X%X2XA.*X%XF.R.*.Z K > J.Q.",
"} O v T.L l [.$X{.@X*X2Xh f n yXv c H.|.E.].8X9XiX#X+Xw L 5 G.Q.",
"F ~ # d | w g ).wXC.eXpXyXv K.M f f $ @ R f C._.;Xx d E L C d 8 ",
"{ K W u.;.L L r 8 * k K.L.s f : ; : L } b.. & + 5 T ~ K I ' F _ ",
"H H $.4.] H $.+.M.I ^ C O R # D >.5.W P l.Y.%.} e.K ' K ( ' ' q.",
"' L P [ { J 4.z.m.K K ( ( w.n.L O.4./ f.r./ ..K K e.7.H } q.( ' ",
"} { e.n.{ U J 5.m.H H M.P X.O.[ ` K ) ] m._ n.{ 6.F H _ I _ _ ~ ",
"K I ` :.;.H I M.H { { m.U k.z.~ M.M.9.f.;.b.e.K ' M.m.7.I { ) K ",
"6.' I M.] K e.I H M.i.i.m.` m.M.K _ M.M.` 1.h.m.P a.f.] H M.p.6.",
"I K ' } _ } } _ H U { { ' 6.' L X.1.) H ' X.' M.[ 7.9.M.6.' K ' ",
"H K U ) q.K ( 6.H _ U M.U K ( ' %.h.] H K [ Y.$.%.] ) I { I _ H ",
"{ U K I ' K q.' ( } M.H ' 7.6.K H n.e.' M.o.#.4.0.K 6.' I H } _ "
};
